<svg width="20" height="22" viewBox="0 0 20 22" fill="none" xmlns="http://www.w3.org/2000/svg">
<path d="M14.1447 0.166626C15.491 0.166626 16.5822 1.25793 16.5822 2.60413V19.3958C16.5822 20.7419 15.491 21.8333 14.1447 21.8333H2.771C1.4248 21.8333 0.333496 20.7419 0.333496 19.3958V2.60413C0.333496 1.25793 1.4248 0.166626 2.771 0.166626H14.1447ZM14.1447 1.79163H2.771C2.32227 1.79163 1.9585 2.1554 1.9585 2.60413V19.3958C1.9585 19.8445 2.32227 20.2083 2.771 20.2083H14.1447C14.5934 20.2083 14.9572 19.8445 14.9572 19.3958V2.60413C14.9572 2.1554 14.5934 1.79163 14.1447 1.79163ZM17.6668 14.252H18.4793C18.8907 14.252 19.2306 14.5577 19.2845 14.9543L19.2918 15.0645V16.6875C19.2918 17.0988 18.9861 17.4387 18.5896 17.4926L18.4793 17.5H17.6668V14.252ZM17.6668 9.91868H18.4793C18.8907 9.91868 19.2306 10.2244 19.2845 10.621L19.2918 10.7312V12.3541C19.2918 12.7655 18.9861 13.1054 18.5896 13.1593L18.4793 13.1666H17.6668V9.91868ZM17.6668 5.58539H18.4793C18.8907 5.58539 19.2306 5.89106 19.2845 6.28764L19.2918 6.39789V8.02079C19.2918 8.43213 18.9861 8.77207 18.5896 8.82587L18.4793 8.83329H17.6668V5.58539ZM12.5197 3.41663C12.9684 3.41663 13.3322 3.7804 13.3322 4.22913V6.93583C13.3322 7.38457 12.9684 7.74833 12.5197 7.74833H4.396C3.94727 7.74833 3.5835 7.38457 3.5835 6.93583V4.22913C3.5835 3.7804 3.94727 3.41663 4.396 3.41663H12.5197ZM11.7072 5.04163H5.2085V6.12333H11.7072V5.04163Z" fill="#212121"/>
</svg>
