<svg width="778" height="27" viewBox="0 0 778 27" fill="none" xmlns="http://www.w3.org/2000/svg">
<rect width="778" height="27" fill="white"/>
<circle cx="512" cy="13" r="9" fill="white" fill-opacity="0.5" stroke="#707070" stroke-width="2"/>
<path d="M461 13C461 17.9251 456.793 22 451.5 22C446.207 22 442 17.9251 442 13C442 8.07485 446.207 4 451.5 4C456.793 4 461 8.07485 461 13Z" fill="white" fill-opacity="0.5" stroke="#707070" stroke-width="2"/>
<path d="M398 13C398 17.9251 393.793 22 388.5 22C383.207 22 379 17.9251 379 13C379 8.07485 383.207 4 388.5 4C393.793 4 398 8.07485 398 13Z" fill="white" fill-opacity="0.5" stroke="#707070" stroke-width="2"/>
<path d="M336 13C336 17.9251 331.793 22 326.5 22C321.207 22 317 17.9251 317 13C317 8.07485 321.207 4 326.5 4C331.793 4 336 8.07485 336 13Z" fill="white" fill-opacity="0.5" stroke="#707070" stroke-width="2"/>
<circle cx="266" cy="13" r="9" fill="white" fill-opacity="0.5" stroke="#707070" stroke-width="2"/>
</svg>
