<svg width="29" height="31" viewBox="0 0 29 31" fill="none" xmlns="http://www.w3.org/2000/svg">
<path d="M12.1631 0.86454C13.513 -0.288183 15.487 -0.288183 16.8369 0.864557L27.7119 10.1507C28.5286 10.8482 29 11.875 29 12.9568V28.145C29 29.7218 27.7377 31 26.1806 31H20.5417C18.9845 31 17.7222 29.7218 17.7222 28.145V19.9764C17.7222 19.7513 17.5419 19.5685 17.3194 19.5685H11.6806C11.4581 19.5685 11.2778 19.7513 11.2778 19.9764V28.145C11.2778 29.7218 10.0155 31 8.45833 31H2.81944C1.26231 31 0 29.7218 0 28.145V12.9568C0 11.875 0.471331 10.8482 1.28812 10.1507L12.1631 0.86454ZM15.279 2.7353C14.829 2.35105 14.171 2.35105 13.721 2.7353L2.84604 12.0215C2.57378 12.254 2.41667 12.5962 2.41667 12.9568V28.145C2.41667 28.3703 2.597 28.5529 2.81944 28.5529H8.45833C8.68078 28.5529 8.8611 28.3703 8.8611 28.145V19.9764C8.8611 18.3996 10.1234 17.1214 11.6806 17.1214H17.3194C18.8766 17.1214 20.1389 18.3996 20.1389 19.9764V28.145C20.1389 28.3703 20.3192 28.5529 20.5417 28.5529H26.1806C26.4031 28.5529 26.5833 28.3703 26.5833 28.145V12.9568C26.5833 12.5962 26.4263 12.254 26.154 12.0215L15.279 2.7353Z" fill="#212121"/>
</svg>
