<svg width="19" height="18" viewBox="0 0 19 18" fill="none" xmlns="http://www.w3.org/2000/svg">
<path d="M9.5 4C9.9142 4 10.25 4.33579 10.25 4.75V8.25H13.75C14.1642 8.25 14.5 8.5858 14.5 9C14.5 9.4142 14.1642 9.75 13.75 9.75H10.25V13.25C10.25 13.6642 9.9142 14 9.5 14C9.0858 14 8.75 13.6642 8.75 13.25V9.75H5.25C4.83579 9.75 4.5 9.4142 4.5 9C4.5 8.5858 4.83579 8.25 5.25 8.25H8.75V4.75C8.75 4.33579 9.0858 4 9.5 4ZM0.5 3.25C0.5 1.45507 1.95507 0 3.75 0H15.25C17.0449 0 18.5 1.45507 18.5 3.25V14.75C18.5 16.5449 17.0449 18 15.25 18H3.75C1.95507 18 0.5 16.5449 0.5 14.75V3.25ZM3.75 1.5C2.7835 1.5 2 2.2835 2 3.25V14.75C2 15.7165 2.7835 16.5 3.75 16.5H15.25C16.2165 16.5 17 15.7165 17 14.75V3.25C17 2.2835 16.2165 1.5 15.25 1.5H3.75Z" fill="#212121"/>
</svg>
