<svg width="25" height="28" viewBox="0 0 25 28" fill="none" xmlns="http://www.w3.org/2000/svg">
<path d="M15.7102 2.58261C15.5493 1.12985 14.3174 0 12.8218 0H8.30094C6.80526 0 5.57347 1.12985 5.41251 2.58261L3.13428 2.58333C1.5292 2.58333 0.228027 3.88451 0.228027 5.48958V22.9271C0.228027 24.5321 1.5292 25.8333 3.13428 25.8333H9.2715C9.2622 25.5847 9.28765 25.328 9.35262 25.068L9.6457 23.8958H3.13428C2.59926 23.8958 2.16553 23.4621 2.16553 22.9271V5.48958C2.16553 4.95456 2.59926 4.52083 3.13428 4.52083L5.88426 4.52109C6.40564 5.29984 7.29341 5.8125 8.30094 5.8125H12.8218C13.8293 5.8125 14.7172 5.2998 15.2385 4.52104L17.9884 4.52083C18.5235 4.52083 18.9572 4.95456 18.9572 5.48958V12.7366C19.5218 12.2197 20.1922 11.8831 20.8947 11.7268V5.48958C20.8947 3.88451 19.5935 2.58333 17.9884 2.58333L15.7102 2.58261ZM15.7213 2.70727L15.728 2.90625C15.728 2.83937 15.7258 2.77301 15.7213 2.70727ZM8.30094 1.9375H12.8218C13.3568 1.9375 13.7905 2.37123 13.7905 2.90625C13.7905 3.44127 13.3568 3.875 12.8218 3.875H8.30094C7.76592 3.875 7.33219 3.44127 7.33219 2.90625C7.33219 2.37123 7.76592 1.9375 8.30094 1.9375ZM12.3129 19.375H5.39469C4.85967 19.375 4.42594 19.8087 4.42594 20.3437C4.42594 20.8788 4.85967 21.3125 5.39469 21.3125H10.5394C10.7264 21.017 10.9463 20.7416 11.1958 20.492L12.3129 19.375ZM10.5614 16.1458H5.39469C4.85967 16.1458 4.42594 15.7121 4.42594 15.1771C4.42594 14.6421 4.85967 14.2083 5.39469 14.2083H10.5614C11.0964 14.2083 11.5301 14.6421 11.5301 15.1771C11.5301 15.7121 11.0964 16.1458 10.5614 16.1458ZM15.728 10.9792H5.39469C4.85967 10.9792 4.42594 10.5454 4.42594 10.0104C4.42594 9.4754 4.85967 9.04167 5.39469 9.04167H15.728C16.263 9.04167 16.6968 9.4754 16.6968 10.0104C16.6968 10.5454 16.263 10.9792 15.728 10.9792ZM19.7321 13.7814L12.108 21.4054C11.6635 21.8498 11.3482 22.4068 11.1957 23.0167L10.6045 25.3814C10.3475 26.4097 11.279 27.3412 12.3073 27.0841L14.672 26.4929C15.2818 26.3404 15.8387 26.0251 16.2833 25.5806L23.9072 17.9566C25.0602 16.8037 25.0602 14.9344 23.9072 13.7814C22.7543 12.6284 20.885 12.6284 19.7321 13.7814Z" fill="#212121"/>
</svg>
