<svg width="15" height="16" viewBox="0 0 15 16" fill="none" xmlns="http://www.w3.org/2000/svg">
<path d="M14.214 1.28602C13.1657 0.237952 11.4664 0.237997 10.4183 1.28613L1.45577 10.2491C1.15103 10.5539 0.936826 10.9372 0.837001 11.3564L0.0153067 14.8073C-0.0299334 14.9973 0.0266392 15.1972 0.164759 15.3352C0.302887 15.4734 0.502777 15.5299 0.692798 15.4847L4.14374 14.6631C4.56314 14.5632 4.9466 14.349 5.25144 14.0441L14.214 5.08114C15.262 4.03309 15.262 2.334 14.214 1.28602ZM11.2139 2.08152C11.8226 1.47275 12.8096 1.47272 13.4184 2.08146C14.0271 2.69015 14.0272 3.67702 13.4185 4.28574L12.75 4.95428L10.5455 2.74993L11.2139 2.08152ZM9.75002 3.54542L11.9546 5.74977L4.4559 13.2487C4.29829 13.4064 4.10002 13.5171 3.88317 13.5688L1.32143 14.1787L1.93141 11.617C1.98302 11.4002 2.09376 11.202 2.25132 11.0445L9.75002 3.54542Z" fill="#212121"/>
</svg>
