<svg width="29" height="30" viewBox="0 0 29 30" fill="none" xmlns="http://www.w3.org/2000/svg">
<path d="M14.5165 0C15.6534 0.0130154 16.7857 0.143477 17.8953 0.389293C18.3796 0.496601 18.7419 0.89771 18.7969 1.38763L19.0605 3.73664C19.1799 4.81518 20.0967 5.63208 21.1895 5.63321C21.4834 5.63368 21.7739 5.57291 22.0454 5.4536L24.2147 4.50703C24.6659 4.31015 25.1931 4.41749 25.5298 4.77481C27.0976 6.43792 28.2651 8.43256 28.9447 10.6086C29.0912 11.0778 28.9226 11.5878 28.5245 11.8793L26.6016 13.2871C26.053 13.6874 25.7292 14.3231 25.7292 14.9993C25.7292 15.6753 26.053 16.311 26.6029 16.7122L28.5273 18.1205C28.9255 18.4119 29.0943 18.9219 28.9478 19.3913C28.2685 21.567 27.1016 23.5614 25.5348 25.2248C25.1984 25.5821 24.6716 25.6898 24.2205 25.4933L22.0423 24.5454C21.4191 24.2745 20.7035 24.3142 20.1145 24.6524C19.5256 24.9904 19.1338 25.5865 19.059 26.2581L18.7971 28.6068C18.743 29.0912 18.3886 29.4896 17.9113 29.6024C15.6679 30.1325 13.3306 30.1325 11.0872 29.6024C10.6099 29.4896 10.2555 29.0912 10.2015 28.6068L9.93998 26.2616C9.86317 25.5913 9.47065 24.997 8.88222 24.6601C8.2938 24.3231 7.57931 24.2836 6.95822 24.553L4.77959 25.501C4.32833 25.6975 3.80143 25.5898 3.46495 25.2322C1.89728 23.567 0.730342 21.5701 0.0519678 19.3921C-0.0941493 18.923 0.0746738 18.4133 0.472709 18.122L2.39842 16.7128C2.94693 16.3125 3.27087 15.6768 3.27087 15.0008C3.27087 14.3247 2.94693 13.689 2.39769 13.2882L0.473189 11.8813C0.0745808 11.59 -0.0943971 11.0797 0.0522311 10.6102C0.731782 8.4341 1.89933 6.43946 3.46704 4.77635C3.80385 4.41903 4.331 4.31169 4.78217 4.50857L6.95113 5.45497C7.57522 5.72703 8.2927 5.68594 8.88431 5.34261C9.47336 5.00323 9.86553 4.4065 9.94123 3.73484L10.2046 1.38763C10.2597 0.897464 10.6222 0.496217 11.1069 0.389139C12.2179 0.143723 13.3515 0.0133077 14.5165 0ZM14.5168 2.30754C13.8135 2.31576 13.1124 2.37605 12.4188 2.48773L12.2501 3.99106C12.0925 5.39029 11.2761 6.63236 10.0531 7.33699C8.82266 8.05105 7.32245 8.13699 6.01712 7.56797L4.62582 6.96088C3.73999 8.02884 3.03493 9.23287 2.53834 10.5257L3.774 11.4289C4.9183 12.264 5.59412 13.5903 5.59412 15.0008C5.59412 16.4111 4.9183 17.7374 3.77521 18.5716L2.53762 19.4773C3.03377 20.7724 3.73894 21.9787 4.62537 23.0487L6.02726 22.4387C7.32534 21.8757 8.81534 21.9581 10.0425 22.6607C11.2696 23.3633 12.0881 24.6027 12.2487 26.0041L12.4176 27.5178C13.7954 27.7505 15.2031 27.7505 16.581 27.5178L16.7498 26.0042C16.9059 24.6033 17.7236 23.3596 18.9521 22.6544C20.1806 21.949 21.6737 21.8662 22.9741 22.4316L24.3749 23.0411C25.2605 21.9728 25.9654 20.7685 26.4619 19.4754L25.226 18.571C24.0817 17.7359 23.4059 16.4096 23.4059 14.9993C23.4059 13.5888 24.0817 12.2625 25.2246 11.4284L26.4588 10.5248C25.9623 9.23173 25.2571 8.02747 24.3712 6.95934L22.9826 7.5652C22.4168 7.81388 21.8047 7.94187 21.1866 7.94091C18.9103 7.93854 16.9998 6.23625 16.7514 3.99052L16.5827 2.48724C15.8927 2.3757 15.1986 2.31558 14.5168 2.30754ZM14.4972 9.23072C17.705 9.23072 20.3053 11.8137 20.3053 15C20.3053 18.1862 17.705 20.7693 14.4972 20.7693C11.2894 20.7693 8.68905 18.1862 8.68905 15C8.68905 11.8137 11.2894 9.23072 14.4972 9.23072ZM14.4972 11.5384C12.5726 11.5384 11.0123 13.0882 11.0123 15C11.0123 16.9117 12.5726 18.4616 14.4972 18.4616C16.4218 18.4616 17.9821 16.9117 17.9821 15C17.9821 13.0882 16.4218 11.5384 14.4972 11.5384Z" fill="#212121"/>
</svg>
