<svg width="29" height="29" viewBox="0 0 29 29" fill="none" xmlns="http://www.w3.org/2000/svg">
<path d="M15.1905 13.4643H24.463C24.933 12.985 25.5415 12.6421 26.2237 12.5005C25.9009 5.54227 20.1572 0 13.119 0C5.87359 0 0 5.87359 0 13.119C0 20.1329 5.50409 25.8612 12.4286 26.2203V24.1667V24.1454C6.64882 23.7891 2.07143 18.9886 2.07143 13.119C2.07143 7.13312 6.83212 2.25911 12.7738 2.07672V11.0476C12.7738 12.3823 13.8558 13.4643 15.1905 13.4643ZM15.1905 11.3929C14.9998 11.3929 14.8452 11.2383 14.8452 11.0476V2.20549C19.5644 2.94596 23.2921 6.6738 24.0326 11.3929H15.1905ZM26.9286 13.8095C25.7846 13.8095 24.8571 14.737 24.8571 15.881V26.9286C24.8571 28.0726 25.7846 29 26.9286 29C28.0726 29 29 28.0726 29 26.9286V15.881C29 14.737 28.0726 13.8095 26.9286 13.8095ZM15.881 22.0952C14.737 22.0952 13.8095 23.0227 13.8095 24.1667V26.9286C13.8095 28.0726 14.737 29 15.881 29C17.0249 29 17.9524 28.0726 17.9524 26.9286V24.1667C17.9524 23.0227 17.0249 22.0952 15.881 22.0952ZM19.3333 20.0238C19.3333 18.8798 20.2608 17.9524 21.4048 17.9524C22.5487 17.9524 23.4762 18.8798 23.4762 20.0238V26.9286C23.4762 28.0726 22.5487 29 21.4048 29C20.2608 29 19.3333 28.0726 19.3333 26.9286V20.0238Z" fill="#212121"/>
</svg>
