<svg width="39" height="44" viewBox="0 0 39 44" fill="none" xmlns="http://www.w3.org/2000/svg">
<path d="M14.391 1.89952C11.8831 3.04275 9.75 4.87194 9.75 7.33358V14.7004C10.1527 14.6783 10.5592 14.6672 10.9688 14.6672C11.3792 14.6672 11.7858 14.6784 12.1875 14.7004V11.4847C12.8482 11.9793 13.601 12.4075 14.391 12.7676C17.0089 13.961 20.5398 14.6672 24.375 14.6672C28.2102 14.6672 31.7411 13.961 34.359 12.7676C35.149 12.4075 35.9019 11.9793 36.5625 11.4847V31.7788C36.5625 32.6924 35.6945 33.9188 33.3504 34.9875C31.1162 36.0059 27.944 36.6679 24.3752 36.6679L24.375 37.8887C24.375 38.3128 24.3316 38.7208 24.2507 39.1122L24.375 39.1124C28.2102 39.1124 31.7411 38.4062 34.359 37.2128C36.8669 36.0697 39 34.2405 39 31.7788V7.33358C39 4.87194 36.8669 3.04275 34.359 1.89952C31.7411 0.706126 28.2102 0 24.375 0C20.5398 0 17.0089 0.706126 14.391 1.89952ZM15.3997 10.5422C13.0554 9.47359 12.1875 8.24715 12.1875 7.33358C12.1875 6.42001 13.0554 5.19357 15.3997 4.12494C17.6339 3.10645 20.806 2.44453 24.375 2.44453C27.944 2.44453 31.1162 3.10645 33.3504 4.12494C35.6945 5.19357 36.5625 6.42001 36.5625 7.33358C36.5625 8.24715 35.6945 9.47359 33.3504 10.5422C31.1162 11.5607 27.944 12.2226 24.375 12.2226C20.806 12.2226 17.6339 11.5607 15.3997 10.5422ZM12.1875 17.149C12.9265 17.1945 13.6434 17.2809 14.3307 17.4041C15.3081 17.5792 16.2257 17.8287 17.062 18.1406C20.0019 19.2369 21.9375 21.104 21.9375 23.223C21.9375 26.5982 17.0266 29.3343 10.9688 29.3343C4.91088 29.3343 0 26.5982 0 23.223C0 20.0773 4.2657 17.4868 9.75 17.149C10.1502 17.1243 10.5568 17.1117 10.9688 17.1117C11.3807 17.1117 11.7873 17.1243 12.1875 17.149ZM21.7564 39.0007C20.8182 41.8449 16.3451 44 10.9688 44C4.91088 44 0 41.2641 0 37.8887V28.2436C0.621221 28.8041 1.31615 29.284 2.02893 29.6812C4.43983 31.0245 7.60532 31.7788 10.9688 31.7788C14.3322 31.7788 17.4977 31.0245 19.9085 29.6812C20.6225 29.2835 21.3186 28.8024 21.9407 28.2406C21.9397 30.6277 21.9382 34.163 21.9377 36.5628V36.5672C21.9375 37.0632 21.9375 37.5103 21.9375 37.8887C21.9375 38.2686 21.8753 38.6401 21.7564 39.0007Z" fill="#10135A"/>
</svg>
