<?xml version="1.0" encoding="UTF-8"?>
<svg version="1.1" xmlns="http://www.w3.org/2000/svg" width="1225" height="980">
<path d="M0 0 C3.62830419 2.3661652 6.65820693 4.42685178 9.375 7.8125 C11.75360532 10.64691736 14.17177628 13.11402748 17 15.5 C20.44155834 18.41567225 23.37087675 21.55027938 26.26171875 25.0078125 C28.39863721 27.45686512 30.69483674 29.70828456 33 32 C64.55208333 63.55208333 96.10416667 95.10416667 127.65625 126.65625 C128.8006958 127.79960815 128.8006958 127.79960815 129.96826172 128.96606445 C131.18123422 130.18034875 132.39200129 131.3968519 133.59814453 132.61791992 C135.62069366 134.66410924 137.62573624 136.50330959 139.875 138.3125 C142.19218907 140.2070571 144.10446944 142.21089831 146.03125 144.5 C150.63613501 149.8218604 155.6283949 154.7363822 160.625 159.6875 C162.0171875 161.07291992 162.0171875 161.07291992 163.4375 162.48632812 C165.16240902 164.20258788 166.88835167 165.91780997 168.61572266 167.6315918 C171.08273468 170.08218402 173.5423262 172.54004541 176 175 C176.8971875 175.8971875 177.794375 176.794375 178.71875 177.71875 C353.125 352.125 353.125 352.125 354.58460999 353.58529663 C355.97854734 354.97855775 357.37487582 356.36942526 358.77124023 357.76025391 C360.09576988 359.09131261 361.40070981 360.4431379 362.66015625 361.8359375 C364.24595612 363.62909663 364.24595612 363.62909663 367 366 C371.58109645 365.58464979 374.12202361 362.28919903 377.19253159 359.1766119 C377.81340336 358.55920166 378.43427513 357.94179142 379.0739612 357.30567178 C381.16911738 355.21850644 383.25333227 353.12074079 385.33782959 351.02293396 C386.84619341 349.51587741 388.35521591 348.00947986 389.86484265 346.5036884 C394.02415655 342.35110688 398.17401767 338.18918778 402.32245374 334.02574313 C406.79281686 329.54246354 411.271806 325.06781685 415.74977112 320.59213257 C423.51124037 312.83223883 431.26723332 305.06691196 439.01943207 297.2977581 C447.15149234 289.14795748 455.28663761 281.00125689 463.42594147 272.85869026 C463.93168308 272.35274243 464.4374247 271.84679459 464.95849182 271.325515 C467.52682832 268.75616353 470.09522024 266.18686745 472.6636335 263.6175927 C490.86395401 245.41096799 509.05730662 227.19739506 527.24658203 208.97973633 C544.91916956 191.27960356 562.59489962 173.58261871 580.27490234 155.88989258 C580.81970665 155.3446937 581.36451095 154.79949481 581.92582447 154.23777475 C587.39688863 148.7627551 592.86801683 143.28779945 598.33919195 137.8128907 C609.48498304 126.65949061 620.63034657 115.50566333 631.77545166 104.35157776 C632.28790596 103.83871159 632.80036025 103.32584542 633.32834347 102.79743786 C667.55939161 68.5387795 701.78043963 34.27013261 736 0 C737.10250757 0.93546348 738.20363508 1.87255359 739.30419922 2.81030273 C739.9175412 3.33196518 740.53088318 3.85362762 741.16281128 4.39109802 C743.94278092 6.82563216 746.53536041 9.4286802 749.125 12.0625 C749.62386719 12.56587891 750.12273438 13.06925781 750.63671875 13.58789062 C751.57299878 14.53272674 752.50822987 15.47860476 753.44189453 16.42602539 C755.61949883 18.62580836 757.81039546 20.81216222 760 23 C761.01957829 24.01948421 762.03910708 25.03901792 763.05859375 26.05859375 C763.60265869 26.60265869 764.14672363 27.14672363 764.70727539 27.70727539 C774.82434082 37.82434082 774.82434082 37.82434082 784.94140625 47.94140625 C785.71846924 48.71713989 785.71846924 48.71713989 786.51123047 49.50854492 C787.92399795 50.92386085 789.32750859 52.34839928 790.73046875 53.7734375 C792.98505107 56.08328695 792.98505107 56.08328695 795.75 58.0625 C798.1919593 60.16529829 798.69529659 60.87046901 799 64 C798.03990686 65.58108562 798.03990686 65.58108562 796.48206139 67.13317776 C795.89495868 67.7302357 795.30785598 68.32729365 794.70296228 68.94244426 C794.04199883 69.58884351 793.38103537 70.23524276 792.70004272 70.90122986 C792.01022108 71.59532363 791.32039943 72.2894174 790.6096741 73.00454432 C788.2806589 75.34183596 785.93414279 77.66074017 783.58740234 79.98022461 C781.91973348 81.64648396 780.25316316 83.3138434 778.58761597 84.98222351 C774.04891025 89.52236911 769.49490437 94.046887 764.93810606 98.56886363 C760.6585057 102.81805246 756.39274255 107.08111445 752.12575252 111.3429578 C743.66633372 119.79142375 735.19580474 128.22865921 726.71826172 136.65893555 C718.49435331 144.83703922 710.27564208 153.02030756 702.06396484 161.21069336 C701.55873989 161.7146047 701.05351493 162.21851604 700.53298013 162.73769742 C697.99778639 165.26636452 695.46269636 167.79513556 692.9276588 170.32395923 C675.43675892 187.77177677 657.9348853 205.2085288 640.42163086 222.63391113 C639.68208778 223.36975624 638.9425447 224.10560135 638.18059123 224.8637448 C636.82029916 226.2171733 635.45994056 227.57053495 634.09949815 228.92381233 C633.49674896 229.52347802 632.89399977 230.12314372 632.27298546 230.7409811 C631.75792234 231.25333386 631.24285922 231.76568662 630.71218812 232.29356521 C628.47198531 234.52624044 626.23613944 236.76325546 624 239 C622.47886167 240.52035767 620.95764556 242.04063753 619.43635941 243.56084728 C618.54572178 244.45086821 617.65508416 245.34088913 616.73745751 246.25788039 C616.26200495 246.73299745 615.78655238 247.20811451 615.29669216 247.69762906 C612.64220049 250.35025712 609.98775081 253.0029272 607.33329773 255.65559387 C606.47810111 256.51021415 606.47810111 256.51021415 605.60562779 257.38209949 C579.38152761 283.58857698 553.15996884 309.7975958 526.9403639 336.00857077 C523.1550859 339.79259817 519.36978603 343.5766037 515.58447266 347.3605957 C514.45416908 348.49050582 514.45416908 348.49050582 513.30103108 349.6432424 C501.07197967 361.86793284 488.8411643 374.09085698 476.60970703 386.31314018 C464.0566504 398.85685987 451.50547999 411.40246455 438.95607448 423.94983703 C431.21166647 431.69287059 423.46577585 439.43441491 415.71800247 447.17408106 C410.41529086 452.47152473 405.11440505 457.77079076 399.81497821 463.07152041 C396.75388661 466.13325517 393.69197174 469.19415505 390.62789345 472.25290108 C387.82682707 475.04912813 385.02804495 477.84761994 382.23111591 480.6479852 C381.21530702 481.66421922 380.19863946 482.67959575 379.18105999 483.69405683 C377.80517386 485.06596898 376.43262359 486.4412243 375.06027603 487.81667614 C374.29481217 488.58176028 373.5293483 489.34684443 372.74068856 490.13511294 C370.93584829 491.89215248 370.93584829 491.89215248 370 494 C364.47909474 491.66423239 360.49912145 487.67850768 356.6875 483.1875 C353.54448047 479.48942183 350.1265877 476.35953598 346.40625 473.25 C344.45613271 471.42651371 342.79381249 469.63380356 341.0703125 467.609375 C336.07604337 461.81806239 330.62473154 456.47548187 325.2109375 451.08056641 C323.36862235 449.24364101 321.53175122 447.40139201 319.6953125 445.55859375 C318.51334157 444.37728317 317.33106071 443.19628258 316.1484375 442.015625 C315.33419815 441.1983493 315.33419815 441.1983493 314.50350952 440.36456299 C312.25746061 438.13219271 310.07068738 436.05419695 307.55322266 434.12402344 C304.68496712 431.73792445 302.43022989 429.10332411 300.0088501 426.2755127 C296.15496053 421.91004279 291.98795023 417.84597774 287.8671875 413.734375 C286.90253395 412.76904592 285.93802873 411.8035686 284.97366333 410.83795166 C282.96664432 408.82946955 280.95785646 406.82277874 278.94775391 404.81738281 C276.38124988 402.25659847 273.81929392 399.69131816 271.25863457 397.12469101 C269.27352909 395.135962 267.28603579 393.14963304 265.29782486 391.16400909 C263.89567912 389.76284664 262.49553255 388.35968451 261.09542847 386.95648193 C260.23748688 386.1016925 259.37954529 385.24690308 258.49560547 384.36621094 C257.74616669 383.61756775 256.99672791 382.86892456 256.22457886 382.09759521 C254.00177238 379.94136438 254.00177238 379.94136438 251.42883301 377.96374512 C249.20840575 376.16849893 247.46804974 374.39702547 245.64306641 372.21386719 C242.16669807 368.1529622 238.49571473 364.35066912 234.7109375 360.578125 C234.04462311 359.91085388 233.37830872 359.24358276 232.69180298 358.55609131 C231.29641362 357.16002713 229.89978351 355.76520208 228.50195312 354.37158203 C226.36993014 352.24494294 224.24333413 350.11298109 222.1171875 347.98046875 C220.75292489 346.61686655 219.38835232 345.25357437 218.0234375 343.890625 C217.07795547 342.94210663 217.07795547 342.94210663 216.1133728 341.97442627 C213.64943251 339.52348096 211.25300337 337.19527139 208.49853516 335.06933594 C205.6110126 332.67783299 203.33480865 330.00817118 200.90142822 327.16586304 C197.64103522 323.45204171 194.12259582 320.00034551 190.6171875 316.51953125 C189.83989288 315.74365158 189.06259827 314.96777191 188.26174927 314.16838074 C185.80186104 311.71403844 183.33850725 309.26320918 180.875 306.8125 C179.21461092 305.15713455 177.55445259 303.5015376 175.89453125 301.84570312 C172.19444724 298.15550294 168.49269055 294.46699848 164.78704834 290.78237915 C163.2315223 289.23091738 161.68560761 287.6705699 160.14111328 286.1081543 C158.04329557 283.9544685 158.04329557 283.9544685 155.625 282.1875 C153.37523246 280.31269372 151.66367758 278.52648874 149.77783203 276.3112793 C146.31611386 272.31595241 142.68243739 268.55273441 138.9296875 264.83203125 C138.28556915 264.18932785 137.64145081 263.54662445 136.97781372 262.88444519 C134.94590995 260.85807085 132.91054143 258.83521951 130.875 256.8125 C129.50367223 255.44619838 128.13257663 254.0796637 126.76171875 252.71289062 C123.69427874 249.65534258 120.62504288 246.59961954 117.55218506 243.54751587 C116.11270206 242.11236304 114.68311313 240.66730487 113.25439453 239.22143555 C110.97301619 236.89900064 110.97301619 236.89900064 108.125 234.6875 C105.73446424 232.73645078 103.75761856 230.64485879 101.76025391 228.29370117 C98.23840089 224.22505086 94.53041217 220.40127859 90.7109375 216.61328125 C90.04462311 215.94838181 89.37830872 215.28348236 88.69180298 214.59843445 C86.5885683 212.50073241 84.4818687 210.40655144 82.375 208.3125 C80.95549538 206.89802104 79.53622265 205.48330932 78.1171875 204.06835938 C75.51363665 201.47292421 72.90877089 198.87882537 70.30224609 196.28637695 C67.53020949 193.52885338 64.7635121 190.76607038 62 188 C61.27232422 187.27304932 60.54464844 186.54609863 59.79492188 185.79711914 C56.52849361 182.52812292 53.26720979 179.25402699 50.0057373 175.98008728 C46.68156241 172.64431375 43.35554027 169.31038758 40.02889252 165.97708035 C37.50930777 163.45226626 34.99067366 160.92651829 32.47412109 158.39868164 C30.02612988 155.93979113 27.57567285 153.48338261 25.1235199 151.02864265 C23.74539136 149.64778782 22.36980118 148.26440112 20.9942627 146.88096619 C19.72769836 145.61428856 19.72769836 145.61428856 18.43554688 144.32202148 C17.69784058 143.58209457 16.96013428 142.84216766 16.20007324 142.07981873 C13.99766034 139.93737537 13.99766034 139.93737537 11.42602539 137.95994568 C9.23912 136.19318108 7.53865207 134.47130932 5.74804688 132.31884766 C1.72582567 127.62105923 -2.59179118 123.26425155 -6.96875 118.8984375 C-7.8078894 118.05834137 -8.64702881 117.21824524 -9.51159668 116.35269165 C-11.27522037 114.58839138 -13.04009182 112.82533757 -14.80615234 111.06347656 C-17.49561541 108.37937585 -20.17969129 105.68997128 -22.86328125 103 C-24.58561692 101.27832507 -26.30826274 99.55696034 -28.03125 97.8359375 C-28.82623901 97.03892426 -29.62122803 96.24191101 -30.44030762 95.42074585 C-34.81013021 91.06910278 -39.28176506 86.97021288 -44 83 C-45.1208305 81.80492645 -46.21263768 80.58070394 -47.25 79.3125 C-51.84635927 73.89573793 -56.93974825 68.97789683 -62 64 C-60.36934355 59.86374991 -57.36776548 57.10043401 -54.26513672 54.03808594 C-53.38687729 53.15938843 -53.38687729 53.15938843 -52.49087524 52.26293945 C-50.55851644 50.33197161 -48.61917484 48.40818053 -46.6796875 46.484375 C-45.33689544 45.14531389 -43.99454487 43.80580991 -42.65261841 42.46588135 C-39.12246283 38.94335571 -35.58634194 35.42687797 -32.0489502 31.91162109 C-28.43917149 28.32231449 -24.83505985 24.72732744 -21.23046875 21.1328125 C-14.15918442 14.08296682 -7.08158587 7.03949663 0 0 Z " fill="#020202" transform="translate(244,243)"/>
<path d="M0 0 C0.495 0.99 0.495 0.99 1 2 C1.66 2 2.32 2 3 2 C3 1.34 3 0.68 3 0 C3.99 0 4.98 0 6 0 C4.51619764 3.44469918 2.57149259 5.67558307 -0.07485962 8.31536865 C-0.92743851 9.17069687 -1.7800174 10.02602509 -2.65843201 10.90727234 C-3.60504063 11.84680334 -4.55174489 12.78623799 -5.49853516 13.72558594 C-6.49432102 14.7208075 -7.48966639 15.71646998 -8.48460388 16.71253967 C-11.18448469 19.41299428 -13.89048736 22.10723816 -16.59762621 24.80041409 C-19.42659877 27.61688388 -22.24990833 30.43901871 -25.07382202 33.26055908 C-30.42110945 38.60163041 -35.77347467 43.93758304 -41.12768018 49.27171826 C-47.22345189 55.34513503 -53.31354534 61.424232 -59.40316701 67.50381422 C-71.9291342 80.00887648 -84.46221915 92.5067829 -97 105 C-97.66 104.67 -98.32 104.34 -99 104 C-98.34 102.02 -97.68 100.04 -97 98 C-95.68 98 -94.36 98 -93 98 C-93.226875 97.401875 -93.45375 96.80375 -93.6875 96.1875 C-93.790625 95.465625 -93.89375 94.74375 -94 94 C-92.5625 92.25 -92.5625 92.25 -91 91 C-90.01 91.66 -89.02 92.32 -88 93 C-88.495 90.03 -88.495 90.03 -89 87 C-87.68 87.33 -86.36 87.66 -85 88 C-85 87.01 -85 86.02 -85 85 C-82.03 84.505 -82.03 84.505 -79 84 C-78.9071875 82.8553125 -78.9071875 82.8553125 -78.8125 81.6875 C-77.74119692 78.14395904 -76.15404673 77.7347257 -73 76 C-72.505 74.515 -72.505 74.515 -72 73 C-71.34 73.33 -70.68 73.66 -70 74 C-69.54625 73.030625 -69.0925 72.06125 -68.625 71.0625 C-67 68 -67 68 -65 67 C-64.01 65.515 -64.01 65.515 -63 64 C-62.34 64 -61.68 64 -61 64 C-57.87525373 62.36526484 -57.87525373 62.36526484 -57.3125 59.875 C-57.209375 59.25625 -57.10625 58.6375 -57 58 C-55.68 58 -54.36 58 -53 58 C-53 57.01 -53 56.02 -53 55 C-52.01 55 -51.02 55 -50 55 C-50 54.34 -50 53.68 -50 53 C-49.34 53 -48.68 53 -48 53 C-48.495 50.03 -48.495 50.03 -49 47 C-48.34 47 -47.68 47 -47 47 C-46.505 46.01 -46.505 46.01 -46 45 C-45.01 45.495 -45.01 45.495 -44 46 C-44.66 47.32 -45.32 48.64 -46 50 C-45.34 50 -44.68 50 -44 50 C-43.9175 49.05125 -43.835 48.1025 -43.75 47.125 C-43 44 -43 44 -41.0625 42.625 C-39 42 -39 42 -37 42 C-36.67 41.01 -36.34 40.02 -36 39 C-35.34 38.67 -34.68 38.34 -34 38 C-34.99 37.505 -34.99 37.505 -36 37 C-34.768606 34.53721199 -33.21935077 33.57502313 -31 32 C-30.34 32.33 -29.68 32.66 -29 33 C-29 31.68 -29 30.36 -29 29 C-28.34 29 -27.68 29 -27 29 C-27 28.34 -27 27.68 -27 27 C-26.01 27 -25.02 27 -24 27 C-23.01 25.515 -23.01 25.515 -22 24 C-21.67 24.33 -21.34 24.66 -21 25 C-20.01 23.515 -20.01 23.515 -19 22 C-19.495 21.01 -19.495 21.01 -20 20 C-19.525625 19.54625 -19.05125 19.0925 -18.5625 18.625 C-16.90972192 17.06741796 -16.90972192 17.06741796 -16 15 C-15.34 15 -14.68 15 -14 15 C-13.505 15.495 -13.505 15.495 -13 16 C-12.67 14.68 -12.34 13.36 -12 12 C-10.35 12 -8.7 12 -7 12 C-7.495 10.515 -7.495 10.515 -8 9 C-6.6645075 4.99352249 -4.47234113 4.24255364 -1 2 C-0.67 1.34 -0.34 0.68 0 0 Z " fill="#161717" transform="translate(1017,325)"/>
<path d="M0 0 C1.32 0.66 2.64 1.32 4 2 C-0.30627256 7.14829744 -4.82311931 11.95752072 -9.5859375 16.68359375 C-10.28772125 17.38396255 -10.989505 18.08433136 -11.71255493 18.80592346 C-13.93101136 21.01883027 -16.15293815 23.22821416 -18.375 25.4375 C-19.88955466 26.94703314 -21.40387985 28.45679657 -22.91796875 29.96679688 C-26.60933099 33.64719702 -30.30354069 37.32471957 -34 41 C-34.66 40.34 -35.32 39.68 -36 39 C-34.625 37 -34.625 37 -33 35 C-32.34 35 -31.68 35 -31 35 C-31.33 33.02 -31.66 31.04 -32 29 C-30.35 29.33 -28.7 29.66 -27 30 C-26.34 28.68 -25.68 27.36 -25 26 C-24.34 26 -23.68 26 -23 26 C-22.67 25.34 -22.34 24.68 -22 24 C-21.34 24 -20.68 24 -20 24 C-19.34 22.68 -18.68 21.36 -18 20 C-17.34 20 -16.68 20 -16 20 C-16.33 19.01 -16.66 18.02 -17 17 C-16.01 16.01 -15.02 15.02 -14 14 C-14 14.66 -14 15.32 -14 16 C-13.34 16 -12.68 16 -12 16 C-11.67 15.01 -11.34 14.02 -11 13 C-10.34 13 -9.68 13 -9 13 C-9 12.34 -9 11.68 -9 11 C-8.34 11 -7.68 11 -7 11 C-6.67 10.01 -6.34 9.02 -6 8 C-5.34 8 -4.68 8 -4 8 C-3.71125 7.360625 -3.4225 6.72125 -3.125 6.0625 C-2 4 -2 4 0 3 C0 2.01 0 1.02 0 0 Z " fill="#191A1A" transform="translate(792,551)"/>
<path d="M0 0 C2.475 0.99 2.475 0.99 5 2 C3.60919475 5.13738154 1.98977796 7.25475281 -0.43994141 9.66699219 C-1.14051666 10.36741638 -1.84109192 11.06784058 -2.56289673 11.78948975 C-3.69578629 12.90689545 -3.69578629 12.90689545 -4.8515625 14.046875 C-5.62559418 14.81807678 -6.39962585 15.58927856 -7.19711304 16.3838501 C-9.66841923 18.84396856 -12.14659183 21.29703848 -14.625 23.75 C-16.30254052 25.41750894 -17.97962945 27.08547232 -19.65625 28.75390625 C-23.76560919 32.8412237 -27.88062647 36.92277696 -32 41 C-32.99 40.34 -33.98 39.68 -35 39 C-34.67 37.68 -34.34 36.36 -34 35 C-32.68 35.66 -31.36 36.32 -30 37 C-30 36.01 -30 35.02 -30 34 C-29.34 34 -28.68 34 -28 34 C-27.67 33.01 -27.34 32.02 -27 31 C-26.01 31 -25.02 31 -24 31 C-23.896875 30.360625 -23.79375 29.72125 -23.6875 29.0625 C-23.460625 28.381875 -23.23375 27.70125 -23 27 C-22.01 26.67 -21.02 26.34 -20 26 C-20 24.68 -20 23.36 -20 22 C-18.35666496 20.96210419 -16.68756133 19.96432076 -15 19 C-14.67 18.34 -14.34 17.68 -14 17 C-12.18310515 13.3662103 -8.69724802 12.23241601 -5 11 C-3.79117904 8.99983534 -3.79117904 8.99983534 -3 7 C-2.34 7 -1.68 7 -1 7 C-0.67 4.69 -0.34 2.38 0 0 Z " fill="#181A19" transform="translate(837,504)"/>
<path d="M0 0 C0.99 0.33 1.98 0.66 3 1 C-2.38640924 7.55377097 -8.35885127 13.47246635 -14.375 19.4375 C-15.40778595 20.46525983 -16.44033991 21.49325285 -17.47265625 22.52148438 C-19.97910287 25.01701598 -22.4886708 27.50938082 -25 30 C-25.66 28.68 -26.32 27.36 -27 26 C-26.01 25.01 -25.02 24.02 -24 23 C-23.34 23.33 -22.68 23.66 -22 24 C-21.5978125 22.576875 -21.5978125 22.576875 -21.1875 21.125 C-20 18 -20 18 -17 16 C-16.01 16 -15.02 16 -14 16 C-13.62875 14.63875 -13.62875 14.63875 -13.25 13.25 C-11.95193799 9.87503877 -10.78028159 8.25897879 -8 6 C-7.34 6 -6.68 6 -6 6 C-6 5.01 -6 4.02 -6 3 C-5.01 2.67 -4.02 2.34 -3 2 C-2.34 2.33 -1.68 2.66 -1 3 C-0.67 2.01 -0.34 1.02 0 0 Z " fill="#161717" transform="translate(674,671)"/>
<path d="M0 0 C0.99 0.66 1.98 1.32 3 2 C2.67 2.94875 2.34 3.8975 2 4.875 C0.89840809 7.77062452 0.89840809 7.77062452 1 10 C1.99 10.33 2.98 10.66 4 11 C5.6875 13.0625 5.6875 13.0625 7 15 C6.67 15.66 6.34 16.32 6 17 C7.65 17 9.3 17 11 17 C11.12375 17.7425 11.2475 18.485 11.375 19.25 C11.95486701 21.80141485 12.73708739 23.7267573 14 26 C13.34 26.33 12.68 26.66 12 27 C11.62230469 26.55011719 11.24460938 26.10023438 10.85546875 25.63671875 C5.54876152 19.43520374 -0.18613392 13.7192462 -6 8 C-4.44805246 4.67240077 -2.69378051 2.51419515 0 0 Z " fill="#101010" transform="translate(188,299)"/>
<path d="M0 0 C2.475 0.495 2.475 0.495 5 1 C0.03805145 6.99500997 -5.3476624 12.46427037 -10.875 17.9375 C-11.75414062 18.81212891 -12.63328125 19.68675781 -13.5390625 20.58789062 C-15.6904346 22.72757048 -17.84411792 24.86486597 -20 27 C-21.1171875 23.28125 -21.1171875 23.28125 -20.0625 20.75 C-19.711875 20.1725 -19.36125 19.595 -19 19 C-18.34 19 -17.68 19 -17 19 C-17 18.34 -17 17.68 -17 17 C-14.66785852 15.79371992 -12.50357861 14.8345262 -10 14 C-10.33 13.01 -10.66 12.02 -11 11 C-10.01 10.01 -9.02 9.02 -8 8 C-8 8.66 -8 9.32 -8 10 C-7.34 10 -6.68 10 -6 10 C-6 8.68 -6 7.36 -6 6 C-5.38125 5.7525 -4.7625 5.505 -4.125 5.25 C-1.64931313 3.79371361 -1.04874998 2.62187494 0 0 Z " fill="#171818" transform="translate(914,429)"/>
<path d="M0 0 C3.33333333 3.33333333 6.66666667 6.66666667 10 10 C8.60652624 13.15204981 6.97514921 15.26171773 4.5234375 17.671875 C3.853125 18.33574219 3.1828125 18.99960937 2.4921875 19.68359375 C1.79351563 20.36550781 1.09484375 21.04742187 0.375 21.75 C-0.33140625 22.44738281 -1.0378125 23.14476562 -1.765625 23.86328125 C-3.50598703 25.58012488 -5.25084981 27.29211832 -7 29 C-7.99 28.34 -8.98 27.68 -10 27 C-9.34 27 -8.68 27 -8 27 C-7.67 26.01 -7.34 25.02 -7 24 C-6.34 24 -5.68 24 -5 24 C-4.5978125 22.576875 -4.5978125 22.576875 -4.1875 21.125 C-3 18 -3 18 0 16 C0.66 15.34 1.32 14.68 2 14 C1.67 13.34 1.34 12.68 1 12 C1.66 11.34 2.32 10.68 3 10 C3 9.01 3 8.02 3 7 C2.505 6.525625 2.01 6.05125 1.5 5.5625 C0 4 0 4 0 0 Z " fill="#212121" transform="translate(1033,295)"/>
<path d="M0 0 C1.32 0.33 2.64 0.66 4 1 C-0.23816537 6.06623768 -4.67408963 10.80038069 -9.375 15.4375 C-10.01566406 16.07365234 -10.65632812 16.70980469 -11.31640625 17.36523438 C-12.87530879 18.91250332 -14.43651416 20.45736492 -16 22 C-16.99 21.34 -17.98 20.68 -19 20 C-18.34 20 -17.68 20 -17 20 C-16.67 19.01 -16.34 18.02 -16 17 C-15.34 17 -14.68 17 -14 17 C-12.99782936 13.41672247 -12.99782936 13.41672247 -14 10 C-13.39671875 9.90847656 -12.7934375 9.81695313 -12.171875 9.72265625 C-9.46742737 8.82279508 -8.7917686 7.79297981 -7.25 5.4375 C-6.82203125 4.79683594 -6.3940625 4.15617188 -5.953125 3.49609375 C-5.63859375 3.00238281 -5.3240625 2.50867188 -5 2 C-3.68 2.66 -2.36 3.32 -1 4 C-0.67 2.68 -0.34 1.36 0 0 Z " fill="#131615" transform="translate(746,598)"/>
<path d="M0 0 C0.33 0.66 0.66 1.32 1 2 C1.66 2 2.32 2 3 2 C3.33 1.34 3.66 0.68 4 0 C4.33 0.99 4.66 1.98 5 3 C-0.94 8.94 -6.88 14.88 -13 21 C-13.66 20.67 -14.32 20.34 -15 20 C-13.375 14.25 -13.375 14.25 -10 12 C-8.80767387 9.94996045 -8.80767387 9.94996045 -8 8 C-7.01 8.33 -6.02 8.66 -5 9 C-4.72285156 8.43410156 -4.44570313 7.86820312 -4.16015625 7.28515625 C-3.79792969 6.55167969 -3.43570313 5.81820313 -3.0625 5.0625 C-2.70285156 4.33160156 -2.34320312 3.60070312 -1.97265625 2.84765625 C-1 1 -1 1 0 0 Z " fill="#161817" transform="translate(859,483)"/>
<path d="M0 0 C0.66 0 1.32 0 2 0 C0.37506343 4.15704633 -2.67222824 6.89595505 -5.8125 9.9375 C-6.33392578 10.44990234 -6.85535156 10.96230469 -7.39257812 11.49023438 C-8.42801928 12.50757793 -9.46591245 13.52243239 -10.50634766 14.53466797 C-11.92172667 15.92321077 -13.31132385 17.33789192 -14.69921875 18.75390625 C-17 21 -17 21 -20 23 C-20 21.68 -20 20.36 -20 19 C-19.01 18.67 -18.02 18.34 -17 18 C-16.67 17.01 -16.34 16.02 -16 15 C-14.66666667 13.66666667 -13.33333333 12.33333333 -12 11 C-12 10.34 -12 9.68 -12 9 C-10.68 8.34 -9.36 7.68 -8 7 C-8.33 6.34 -8.66 5.68 -9 5 C-7.02 4.67 -5.04 4.34 -3 4 C-3 3.34 -3 2.68 -3 2 C-2.01 2 -1.02 2 0 2 C0 1.34 0 0.68 0 0 Z " fill="#1A1B1B" transform="translate(885,461)"/>
<path d="M0 0 C0.99 0.33 1.98 0.66 3 1 C-2.55035203 7.78376359 -8.76442027 13.85522968 -15 20 C-16.0546875 18.140625 -16.0546875 18.140625 -17 16 C-16.125 13.75 -16.125 13.75 -15 12 C-14.01 12.66 -13.02 13.32 -12 14 C-12.33 13.01 -12.66 12.02 -13 11 C-12.1028125 10.5978125 -12.1028125 10.5978125 -11.1875 10.1875 C-8.95320603 8.97459756 -7.71762996 7.85504036 -6 6 C-4 4 -2 2 0 0 Z " fill="#181A19" transform="translate(645,700)"/>
<path d="M0 0 C0.66 0 1.32 0 2 0 C2.33 0.66 2.66 1.32 3 2 C3.99 2 4.98 2 6 2 C6.33 2.99 6.66 3.98 7 5 C7.639375 5.28875 8.27875 5.5775 8.9375 5.875 C11 7 11 7 12 9.5625 C12.33 10.366875 12.66 11.17125 13 12 C15.04105639 12.88693303 15.04105639 12.88693303 17 13 C16.67 13.66 16.34 14.32 16 15 C16.66 15.66 17.32 16.32 18 17 C17.01 17.33 16.02 17.66 15 18 C9.72 12.72 4.44 7.44 -1 2 C-0.67 1.34 -0.34 0.68 0 0 Z " fill="#181918" transform="translate(509,631)"/>
<path d="M0 0 C4.04704664 0.86722428 7.04798117 2.04798117 10 5 C9.67 5.33 9.34 5.66 9 6 C11.8424854 7.57273568 11.8424854 7.57273568 15 8 C15.33 9.65 15.66 11.3 16 13 C17.32 13.33 18.64 13.66 20 14 C19.01 15.485 19.01 15.485 18 17 C18.33 17.66 18.66 18.32 19 19 C15.68539307 17.89513102 15.03023894 17.12376914 12.875 14.5 C9.37483462 10.35526455 5.60856295 6.56726577 1.72265625 2.78515625 C0 1 0 1 0 0 Z M4 0 C6 1 6 1 6 1 Z " fill="#1A1B1B" transform="translate(572,696)"/>
<path d="M0 0 C2.875 0.6875 2.875 0.6875 6 2 C7.375 4.625 7.375 4.625 8 7 C8.99 7 9.98 7 11 7 C11 7.66 11 8.32 11 9 C11.66 9.33 12.32 9.66 13 10 C14.33333333 11.33333333 15.66666667 12.66666667 17 14 C16.67 14.33 16.34 14.66 16 15 C16.66 15.66 17.32 16.32 18 17 C17.01 17.33 16.02 17.66 15 18 C9.72 12.72 4.44 7.44 -1 2 C-0.67 1.34 -0.34 0.68 0 0 Z " fill="#1A1B1A" transform="translate(213,335)"/>
<path d="M0 0 C0.99 0.99 1.98 1.98 3 3 C3.66 2.67 4.32 2.34 5 2 C5.268125 2.804375 5.53625 3.60875 5.8125 4.4375 C6.204375 5.283125 6.59625 6.12875 7 7 C7.99 7.33 8.98 7.66 10 8 C10 8.99 10 9.98 10 11 C10.66 11 11.32 11 12 11 C13.7265625 12.75 13.7265625 12.75 15.625 15 C16.57246094 16.11375 16.57246094 16.11375 17.5390625 17.25 C18.26222656 18.11625 18.26222656 18.11625 19 19 C18.34 19.66 17.68 20.32 17 21 C10.73 14.73 4.46 8.46 -2 2 C-1.34 1.34 -0.68 0.68 0 0 Z " fill="#1B1D1C" transform="translate(459,580)"/>
<path d="M0 0 C0.99 0 1.98 0 3 0 C3 0.66 3 1.32 3 2 C4.134375 2.28875 5.26875 2.5775 6.4375 2.875 C7.613125 3.24625 8.78875 3.6175 10 4 C10.33 4.66 10.66 5.32 11 6 C10.67 6.66 10.34 7.32 10 8 C10.66 8 11.32 8 12 8 C13.76171875 9.64453125 13.76171875 9.64453125 15.6875 11.8125 C16.65236328 12.87404297 16.65236328 12.87404297 17.63671875 13.95703125 C18.31154297 14.96830078 18.31154297 14.96830078 19 16 C18.67 16.99 18.34 17.98 18 19 C13.0378548 15.12710619 9.03780077 10.81719023 5 6 C4.23042969 5.08541016 4.23042969 5.08541016 3.4453125 4.15234375 C2.29104272 2.77308919 1.14454883 1.38733192 0 0 Z M5 1 C7 2 7 2 7 2 Z " fill="#1B1C1B" transform="translate(244,368)"/>
<path d="M0 0 C1.6875 0.125 1.6875 0.125 4 1 C5.67067133 2.99665598 7.33752986 4.99651034 9 7 C9.99 7 10.98 7 12 7 C12.28875 7.804375 12.5775 8.60875 12.875 9.4375 C13.73262568 12.1326468 13.73262568 12.1326468 16 13 C16 13.66 16 14.32 16 15 C16.99 15.33 17.98 15.66 19 16 C18.01 16.66 17.02 17.32 16 18 C7.015625 9.015625 7.015625 9.015625 5.45507812 7.44726562 C4.19173107 6.19070164 2.90269356 4.96006906 1.609375 3.734375 C0 2 0 2 0 0 Z " fill="#282928" transform="translate(356,479)"/>
<path d="M0 0 C0.66 0 1.32 0 2 0 C1.52590352 4.31730413 -1.03396703 6.33647461 -4.0625 9.25 C-4.98160156 10.14203125 -5.90070312 11.0340625 -6.84765625 11.953125 C-7.55792969 12.62859375 -8.26820313 13.3040625 -9 14 C-9.66 13.67 -10.32 13.34 -11 13 C-10 10 -10 10 -8 8 C-8.33 7.34 -8.66 6.68 -9 6 C-7.02 4.35 -5.04 2.7 -3 1 C-3 1.66 -3 2.32 -3 3 C-2.34 3 -1.68 3 -1 3 C-0.67 2.01 -0.34 1.02 0 0 Z " fill="#161817" transform="translate(725,620)"/>
<path d="M0 0 C1.67542976 0.28604898 3.34385343 0.61781233 5 1 C5 1.66 5 2.32 5 3 C5.598125 3.20625 6.19625 3.4125 6.8125 3.625 C9.85490688 5.53737004 10.66171946 7.72121267 12 11 C12 11.99 12 12.98 12 14 C7.11950075 10.0580583 2.9419417 5.88049925 -1 1 C-0.67 0.67 -0.34 0.34 0 0 Z " fill="#121312" transform="translate(429,551)"/>
<path d="M0 0 C4.22271781 2.53363068 6.78310162 4.56620325 9 9 C8.01 9 7.02 9 6 9 C5.67 8.67 5.34 8.34 5 8 C3.15108054 7.76636119 1.29511969 7.58696365 -0.5625 7.4375 C-1.57441406 7.35371094 -2.58632812 7.26992187 -3.62890625 7.18359375 C-4.80259766 7.09271484 -4.80259766 7.09271484 -6 7 C-4.02 4.69 -2.04 2.38 0 0 Z " fill="#232222" transform="translate(244,243)"/>
<path d="M0 0 C1.32 0.33 2.64 0.66 4 1 C2.46356148 4.68069887 0.21849055 6.98775204 -2.625 9.75 C-3.85089844 10.94882812 -3.85089844 10.94882812 -5.1015625 12.171875 C-5.72804688 12.77515625 -6.35453125 13.3784375 -7 14 C-7.99 13.34 -8.98 12.68 -10 12 C-9.34 12 -8.68 12 -8 12 C-7.67 11.01 -7.34 10.02 -7 9 C-6.34 9 -5.68 9 -5 9 C-4.5978125 7.576875 -4.5978125 7.576875 -4.1875 6.125 C-3 3 -3 3 0 1 C0 0.67 0 0.34 0 0 Z " fill="#181919" transform="translate(1033,310)"/>
<path d="M0 0 C2 0 2 0 4 1.9375 C4.99 2.9584375 4.99 2.9584375 6 4 C6.66 4.33 7.32 4.66 8 5 C8 5.66 8 6.32 8 7 C10.475 7.99 10.475 7.99 13 9 C12.814375 9.61875 12.62875 10.2375 12.4375 10.875 C11.76313824 13.04160178 11.76313824 13.04160178 13 15 C9.63393398 13.87797799 8.80518731 12.90725979 6.5625 10.25 C5.9540625 9.53328125 5.345625 8.8165625 4.71875 8.078125 C2.78484399 5.73985682 0.86815572 3.39123933 -1 1 C-0.67 0.67 -0.34 0.34 0 0 Z " fill="#1D1E1E" transform="translate(594,716)"/>
<path d="M0 0 C1.98 0 3.96 0 6 0 C4.59155282 3.21524305 2.89655214 5.32183868 0.375 7.75 C-0.57246094 8.67039062 -0.57246094 8.67039062 -1.5390625 9.609375 C-2.02117188 10.06828125 -2.50328125 10.5271875 -3 11 C-3.66 10.67 -4.32 10.34 -5 10 C-4.67 7.69 -4.34 5.38 -4 3 C-2.68 3.66 -1.36 4.32 0 5 C0 3.35 0 1.7 0 0 Z " fill="#181818" transform="translate(689,653)"/>
<path d="M0 0 C0.66 0.33 1.32 0.66 2 1 C1.67 2.65 1.34 4.3 1 6 C-0.65 6.33 -2.3 6.66 -4 7 C-4.5534764 9.07553648 -5 10.84365964 -5 13 C-5.99 13.33 -6.98 13.66 -8 14 C-8.99 13.01 -9.98 12.02 -11 11 C-7.37 7.37 -3.74 3.74 0 0 Z " fill="#1B1C1C" transform="translate(973,250)"/>
<path d="M0 0 C0.66 0.66 1.32 1.32 2 2 C1.67 2.33 1.34 2.66 1 3 C2.98 3.99 4.96 4.98 7 6 C6.67 6.66 6.34 7.32 6 8 C6.99 8.33 7.98 8.66 9 9 C9.6875 11.0625 9.6875 11.0625 10 13 C7 13 7 13 4.51953125 10.8125 C3.62621094 9.884375 2.73289062 8.95625 1.8125 8 C0.91144531 7.071875 0.01039063 6.14375 -0.91796875 5.1875 C-1.60503906 4.465625 -2.29210937 3.74375 -3 3 C-2.01 2.01 -1.02 1.02 0 0 Z " fill="#191A1A" transform="translate(284,403)"/>
<path d="M0 0 C1.32 0.66 2.64 1.32 4 2 C3.06725891 3.12894876 2.12859878 4.25300876 1.1875 5.375 C0.66542969 6.00148438 0.14335938 6.62796875 -0.39453125 7.2734375 C-2 9 -2 9 -5 11 C-5.98120464 7.94736336 -5.98120464 6.05263664 -5 3 C-4.34 3 -3.68 3 -3 3 C-2.67 3.33 -2.34 3.66 -2 4 C-1.34 2.68 -0.68 1.36 0 0 Z " fill="#1B1B1B" transform="translate(710,633)"/>
<path d="M0 0 C0.99 1.32 1.98 2.64 3 4 C1.576875 4.2784375 1.576875 4.2784375 0.125 4.5625 C-3.38371699 5.73400805 -3.38371699 5.73400805 -4.375 9.625 C-4.58125 10.73875 -4.7875 11.8525 -5 13 C-7.475 12.01 -7.475 12.01 -10 11 C-6.79239749 7.19364503 -3.59253891 3.45436433 0 0 Z " fill="#1D1C1C" transform="translate(764,459)"/>
<path d="M0 0 C0.66 0.33 1.32 0.66 2 1 C0.51612027 4.91204657 -1.4898441 5.91062149 -5 8 C-6.34919532 9.65385233 -7.68133728 11.321702 -9 13 C-10.93957313 14.75758849 -12.94969519 16.36907572 -15 18 C-15.66 17.67 -16.32 17.34 -17 17 C-11.39 11.39 -5.78 5.78 0 0 Z " fill="#1E1F1F" transform="translate(901,322)"/>
<path d="M0 0 C3.36473477 1.88753414 4.04211268 3.96232899 5.5625 7.4375 C6.2225 8.0975 6.8825 8.7575 7.5625 9.4375 C7.2325 10.0975 6.9025 10.7575 6.5625 11.4375 C4.5625 11.4375 4.5625 11.4375 2.90625 9.79296875 C2.2978125 9.07753906 1.689375 8.36210937 1.0625 7.625 C0.4540625 6.91730469 -0.154375 6.20960938 -0.78125 5.48046875 C-2.4375 3.4375 -2.4375 3.4375 -4.4375 0.4375 C-2.4375 -0.5625 -2.4375 -0.5625 0 0 Z " fill="#191B1A" transform="translate(344.4375,463.5625)"/>
<path d="M0 0 C0 3.16820458 -0.62797454 4.25594908 -2 7 C-2 7.99 -2 8.98 -2 10 C-3.093125 10.268125 -4.18625 10.53625 -5.3125 10.8125 C-8.61692663 11.87663739 -9.94960422 12.34654664 -12 15 C-12.66 14.67 -13.32 14.34 -14 14 C-9.38 9.38 -4.76 4.76 0 0 Z " fill="#1D1C1D" transform="translate(786,437)"/>
<path d="M0 0 C0.66 0.99 1.32 1.98 2 3 C1.030625 3.598125 0.06125 4.19625 -0.9375 4.8125 C-4.23052042 6.71127509 -4.23052042 6.71127509 -5 10 C-6.3243115 10.68441309 -7.65892758 11.34904149 -9 12 C-10.73442288 13.70377665 -10.73442288 13.70377665 -12.25 15.625 C-13.03117188 16.57246094 -13.03117188 16.57246094 -13.828125 17.5390625 C-14.21484375 18.02117187 -14.6015625 18.50328125 -15 19 C-15.66 18.34 -16.32 17.68 -17 17 C-11.39 11.39 -5.78 5.78 0 0 Z " fill="#202020" transform="translate(219,268)"/>
<path d="M0 0 C0.33 0.99 0.66 1.98 1 3 C2.65 2.67 4.3 2.34 6 2 C6.061875 2.78375 6.12375 3.5675 6.1875 4.375 C6.455625 5.24125 6.72375 6.1075 7 7 C9.47636012 8.37466625 9.47636012 8.37466625 12 9 C10.68 9.99 9.36 10.98 8 12 C2.25 7.375 2.25 7.375 0 4 C0 2.68 0 1.36 0 0 Z " fill="#1D1E1D" transform="translate(203,324)"/>
<path d="M0 0 C-2.15381444 5.28663545 -6.42236838 8.77870367 -11 12 C-11 10.68 -11 9.36 -11 8 C-10.01 7.67 -9.02 7.34 -8 7 C-7.67 6.01 -7.34 5.02 -7 4 C-3.57142857 0 -3.57142857 0 0 0 Z " fill="#191B1A" transform="translate(876,472)"/>
<path d="M0 0 C1.33897583 0.95043374 2.67105427 1.91059147 4 2.875 C5.11375 3.67550781 5.11375 3.67550781 6.25 4.4921875 C6.8275 4.98976563 7.405 5.48734375 8 6 C8 6.66 8 7.32 8 8 C6.02 8.99 6.02 8.99 4 10 C2.02 8.35 0.04 6.7 -2 5 C-1.34 4.01 -0.68 3.02 0 2 C0 1.34 0 0.68 0 0 Z " fill="#0B0B0B" transform="translate(554,673)"/>
<path d="M0 0 C0.66 0 1.32 0 2 0 C2 0.66 2 1.32 2 2 C3.65 2 5.3 2 7 2 C7.12375 2.7425 7.2475 3.485 7.375 4.25 C7.95486701 6.80141485 8.73708739 8.7267573 10 11 C9.01 11.495 9.01 11.495 8 12 C6.84545838 10.75803878 5.70167438 9.50607155 4.5625 8.25 C3.92441406 7.55390625 3.28632813 6.8578125 2.62890625 6.140625 C1.00918675 4.01207275 0.41732744 2.60976595 0 0 Z " fill="#262726" transform="translate(192,314)"/>
<path d="M0 0 C2.375 0.25 2.375 0.25 5 1 C6.3125 3.0625 6.3125 3.0625 7 5 C6.01 6.485 6.01 6.485 5 8 C2.4636387 6.98545548 1.20648539 6.3146444 -0.3125 4 C-0.539375 3.34 -0.76625 2.68 -1 2 C-0.67 1.34 -0.34 0.68 0 0 Z " fill="#1F1F1F" transform="translate(609,729)"/>
<path d="M0 0 C2.1875 2.875 2.1875 2.875 2.5 5.6875 C2.3453125 6.7703125 2.3453125 6.7703125 2.1875 7.875 C1.0819811 6.93909496 -0.02185453 6.00120142 -1.125 5.0625 C-1.73988281 4.54042969 -2.35476563 4.01835937 -2.98828125 3.48046875 C-4.66674679 2.00327531 -6.25132034 0.47460869 -7.8125 -1.125 C-4.10127159 -2.50345627 -3.2456276 -2.45225197 0 0 Z " fill="#1E1F1E" transform="translate(316.8125,435.125)"/>
<path d="M0 0 C0.66 0 1.32 0 2 0 C0.59155282 3.21524305 -1.10344786 5.32183868 -3.625 7.75 C-4.57246094 8.67039062 -4.57246094 8.67039062 -5.5390625 9.609375 C-6.02117188 10.06828125 -6.50328125 10.5271875 -7 11 C-7.66 10.67 -8.32 10.34 -9 10 C-8.34 8.02 -7.68 6.04 -7 4 C-5.68 4 -4.36 4 -3 4 C-3 3.34 -3 2.68 -3 2 C-2.01 2 -1.02 2 0 2 C0 1.34 0 0.68 0 0 Z " fill="#1B1C1B" transform="translate(927,419)"/>
<path d="M0 0 C0.99 0 1.98 0 3 0 C1.59155282 3.21524305 -0.10344786 5.32183868 -2.625 7.75 C-3.57246094 8.67039062 -3.57246094 8.67039062 -4.5390625 9.609375 C-5.02117188 10.06828125 -5.50328125 10.5271875 -6 11 C-6.68707555 8.50935112 -7 6.62113708 -7 4 C-5.35 4 -3.7 4 -2 4 C-2 3.34 -2 2.68 -2 2 C-1.34 2 -0.68 2 0 2 C0 1.34 0 0.68 0 0 Z " fill="#1B1C1C" transform="translate(1012,333)"/>
<path d="M0 0 C0 3.54069923 -0.49579807 5.78647769 -2 9 C-5.21352231 10.50420193 -7.45930077 11 -11 11 C-7.37 7.37 -3.74 3.74 0 0 Z " fill="#1B1B1B" transform="translate(809,414)"/>
<path d="M0 0 C0.66 0 1.32 0 2 0 C3.40234375 1.42578125 3.40234375 1.42578125 4.9375 3.3125 C6.86463171 5.66350211 8.81719293 7.88235135 11 10 C10.34 10.66 9.68 11.32 9 12 C5.7 8.7 2.4 5.4 -1 2 C-0.67 1.34 -0.34 0.68 0 0 Z " fill="#1E1F1F" transform="translate(538,660)"/>
<path d="M0 0 C0.99 0.66 1.98 1.32 3 2 C3 2.99 3 3.98 3 5 C1.39125 5.37125 1.39125 5.37125 -0.25 5.75 C-3.99649437 6.99883146 -5.52073882 8.02488658 -8 11 C-8 8 -8 8 -6.25 5.95703125 C-5.5075 5.24933594 -4.765 4.54164063 -4 3.8125 C-2.88625 2.73935547 -2.88625 2.73935547 -1.75 1.64453125 C-1.1725 1.10183594 -0.595 0.55914062 0 0 Z " fill="#1A1A1A" transform="translate(237,250)"/>
<path d="M0 0 C0.33 0.99 0.66 1.98 1 3 C0.360625 3.5775 -0.27875 4.155 -0.9375 4.75 C-2.98223868 6.98062401 -3.58205199 8.07436391 -4 11 C-6.31 11.33 -8.62 11.66 -11 12 C-7.49102731 7.81576108 -3.91939465 3.80411834 0 0 Z " fill="#1D1D1D" transform="translate(723,500)"/>
<path d="M0 0 C1.2065625 0.0309375 1.2065625 0.0309375 2.4375 0.0625 C3.4275 2.7025 4.4175 5.3425 5.4375 8.0625 C2.4375 8.0625 2.4375 8.0625 0.83203125 6.53125 C0.30996094 5.8815625 -0.21210938 5.231875 -0.75 4.5625 C-1.27980469 3.9128125 -1.80960937 3.263125 -2.35546875 2.59375 C-2.75378906 2.0884375 -3.15210938 1.583125 -3.5625 1.0625 C-2.5625 0.0625 -2.5625 0.0625 0 0 Z " fill="#181919" transform="translate(268.5625,387.9375)"/>
<path d="M0 0 C3.26460973 1.80412643 4.88929795 2.83394693 7 6 C5.02 6.99 5.02 6.99 3 8 C1.35 6.02 -0.3 4.04 -2 2 C-1.34 1.34 -0.68 0.68 0 0 Z " fill="#141514" transform="translate(568,688)"/>
<path d="M0 0 C0 3 0 3 -2 6 C-2.38499891 7.65549531 -2.72793135 9.3222433 -3 11 C-5.475 10.01 -5.475 10.01 -8 9 C-7.04270084 7.87411986 -6.08412105 6.7493285 -5.125 5.625 C-4.59132813 4.99851562 -4.05765625 4.37203125 -3.5078125 3.7265625 C-2.38567993 2.44163349 -1.20628025 1.20628025 0 0 Z " fill="#1B1B1B" transform="translate(650,573)"/>
<path d="M0 0 C1.65 0 3.3 0 5 0 C5.33 0.99 5.66 1.98 6 3 C5.67 3.66 5.34 4.32 5 5 C5.66 5 6.32 5 7 5 C6.34 6.65 5.68 8.3 5 10 C3.04783565 8.04783565 2.15173355 6.46800047 1 4 C1.33 3.67 1.66 3.34 2 3 C1.34 2.67 0.68 2.34 0 2 C0 1.34 0 0.68 0 0 Z " fill="#111111" transform="translate(529,648)"/>
<path d="M0 0 C0 3.57996647 -0.92545363 4.23393817 -3 7 C-3 7.99 -3 8.98 -3 10 C-5.76264289 10.59732819 -8.16032769 11 -11 11 C-7.37 7.37 -3.74 3.74 0 0 Z " fill="#1E201F" transform="translate(753,470)"/>
<path d="M0 0 C0 3.57996647 -0.92545363 4.23393817 -3 7 C-3 7.99 -3 8.98 -3 10 C-5.76264289 10.59732819 -8.16032769 11 -11 11 C-7.37 7.37 -3.74 3.74 0 0 Z " fill="#1E1E1E" transform="translate(937,286)"/>
<path d="M0 0 C0 0.99 0 1.98 0 3 C-1 4 -2 5 -3 6 C-3 6.99 -3 7.98 -3 9 C-8.625 12 -8.625 12 -12 12 C-8.04 8.04 -4.08 4.08 0 0 Z " fill="#1E1E1E" transform="translate(201,286)"/>
<path d="M0 0 C0 3.6959107 -0.83487616 6.50462849 -2 10 C-4.475 9.01 -4.475 9.01 -7 8 C-6.02133662 6.85373678 -5.04205413 5.70800212 -4.0625 4.5625 C-3.51722656 3.92441406 -2.97195313 3.28632813 -2.41015625 2.62890625 C-1.63204305 1.73008851 -0.84063472 0.84063472 0 0 Z " fill="#191A1A" transform="translate(961,262)"/>
<path d="M0 0 C0.33 0.66 0.66 1.32 1 2 C0.01 3.485 0.01 3.485 -1 5 C-1 5.99 -1 6.98 -1 8 C-3.76264289 8.59732819 -6.16032769 9 -9 9 C-6.03 6.03 -3.06 3.06 0 0 Z " fill="#1D1D1D" transform="translate(695,528)"/>
<path d="M0 0 C5.75 1.625 5.75 1.625 8 5 C6.02 5.99 6.02 5.99 4 7 C2.35 5.35 0.7 3.7 -1 2 C-0.67 1.34 -0.34 0.68 0 0 Z " fill="#202020" transform="translate(448,570)"/>
<path d="M0 0 C1.875 0.1875 1.875 0.1875 4 1 C5.52164099 3.89111788 6 5.71823412 6 9 C3.69 7.02 1.38 5.04 -1 3 C-0.67 2.01 -0.34 1.02 0 0 Z " fill="#1C1D1C" transform="translate(435,556)"/>
<path d="M0 0 C3 0 3 0 5.1875 1.875 C7 4 7 4 7 6 C7.99 6.33 8.98 6.66 10 7 C9.01 7.66 8.02 8.32 7 9 C5.82737096 7.88121617 4.66204862 6.75476949 3.5 5.625 C2.8503125 4.99851562 2.200625 4.37203125 1.53125 3.7265625 C0 2 0 2 0 0 Z " fill="#1C1D1D" transform="translate(365,488)"/>
<path d="M0 0 C0.66 0.33 1.32 0.66 2 1 C1.25 3.4375 1.25 3.4375 0 6 C-1.9375 6.625 -1.9375 6.625 -4 7 C-5.73026102 8.47890069 -5.73026102 8.47890069 -7 10 C-7.66 9.67 -8.32 9.34 -9 9 C-6.03 6.03 -3.06 3.06 0 0 Z " fill="#1D1D1D" transform="translate(733,490)"/>
<path d="M0 0 C1.32 0 2.64 0 4 0 C3.75 2.375 3.75 2.375 3 5 C0.9375 6.3125 0.9375 6.3125 -1 7 C-1.33 5.35 -1.66 3.7 -2 2 C-1.34 2 -0.68 2 0 2 C0 1.34 0 0.68 0 0 Z " fill="#101010" transform="translate(990,352)"/>
<path d="M0 0 C0.66 0 1.32 0 2 0 C2.66 2.31 3.32 4.62 4 7 C2.02 7.99 2.02 7.99 0 9 C-0.99 7.68 -1.98 6.36 -3 5 C-2.01 4.34 -1.02 3.68 0 3 C0 2.01 0 1.02 0 0 Z " fill="#151515" transform="translate(396,512)"/>
<path d="M0 0 C0.66 0.33 1.32 0.66 2 1 C1.67 2.65 1.34 4.3 1 6 C-1.76264289 6.59732819 -4.16032769 7 -7 7 C-4.69 4.69 -2.38 2.38 0 0 Z " fill="#1B1B1B" transform="translate(821,402)"/>
<path d="M0 0 C4.83256305 0.41421969 6.82679218 2.46413986 10 6 C9.67 6.99 9.34 7.98 9 9 C5.51250686 6.21000549 2.49842779 3.74764169 0 0 Z " fill="#2D2E2D" transform="translate(253,378)"/>
<path d="M0 0 C0.66 0.33 1.32 0.66 2 1 C1.67 2.65 1.34 4.3 1 6 C-1.76264289 6.59732819 -4.16032769 7 -7 7 C-4.69 4.69 -2.38 2.38 0 0 Z " fill="#1B1A1A" transform="translate(877,346)"/>
<path d="M0 0 C0.99 1.32 1.98 2.64 3 4 C0.03 6.475 0.03 6.475 -3 9 C-2.25 2.25 -2.25 2.25 0 0 Z " fill="#191919" transform="translate(680,663)"/>
<path d="M0 0 C0.99 1.32 1.98 2.64 3 4 C1.68 5.32 0.36 6.64 -1 8 C-1 7.34 -1 6.68 -1 6 C-1.66 6 -2.32 6 -3 6 C-2.42655063 3.13275314 -2.1385485 2.1385485 0 0 Z " fill="#131313" transform="translate(701,641)"/>
<path d="M0 0 C0.66 0 1.32 0 2 0 C3.5078125 1.53125 3.5078125 1.53125 5.125 3.5 C5.66382813 4.1496875 6.20265625 4.799375 6.7578125 5.46875 C7.16773438 5.9740625 7.57765625 6.479375 8 7 C7.34 7.66 6.68 8.32 6 9 C3.36 6.69 0.72 4.38 -2 2 C-1.34 1.34 -0.68 0.68 0 0 Z " fill="#242524" transform="translate(498,620)"/>
<path d="M0 0 C0.66 0.33 1.32 0.66 2 1 C1.25 3.4375 1.25 3.4375 0 6 C-1.875 6.6875 -1.875 6.6875 -4 7 C-5.34494733 7.64291438 -6.68018356 8.30695831 -8 9 C-7.04270084 7.87411986 -6.08412105 6.7493285 -5.125 5.625 C-4.59132813 4.99851562 -4.05765625 4.37203125 -3.5078125 3.7265625 C-2.38567993 2.44163349 -1.20628025 1.20628025 0 0 Z " fill="#1C1C1C" transform="translate(677,546)"/>
<path d="M0 0 C0.66 0 1.32 0 2 0 C3.5078125 1.53125 3.5078125 1.53125 5.125 3.5 C5.66382813 4.1496875 6.20265625 4.799375 6.7578125 5.46875 C7.16773438 5.9740625 7.57765625 6.479375 8 7 C7.67 7.66 7.34 8.32 7 9 C6.34 9 5.68 9 5 9 C3.4921875 7.25 3.4921875 7.25 1.875 5 C1.33617187 4.2575 0.79734375 3.515 0.2421875 2.75 C-0.37269531 1.88375 -0.37269531 1.88375 -1 1 C-0.67 0.67 -0.34 0.34 0 0 Z " fill="#262827" transform="translate(298,420)"/>
<path d="M0 0 C2.64 1.98 5.28 3.96 8 6 C7.67 6.66 7.34 7.32 7 8 C6.21625 7.67 5.4325 7.34 4.625 7 C2.15667503 5.88133489 2.15667503 5.88133489 0 6 C0 4.02 0 2.04 0 0 Z " fill="#272626" transform="translate(409,408)"/>
<path d="M0 0 C0 3.6461404 -0.08577934 5.97607286 -2.5625 8.75 C-3.2740625 9.36875 -3.2740625 9.36875 -4 10 C-4.66 8.68 -5.32 7.36 -6 6 C-4.02 4.02 -2.04 2.04 0 0 Z " fill="#1F201F" transform="translate(188,299)"/>
<path d="M0 0 C1.98 1.65 3.96 3.3 6 5 C5.34 5.66 4.68 6.32 4 7 C2 6.33333333 0 5.66666667 -2 5 C-1.34 3.35 -0.68 1.7 0 0 Z " fill="#171617" transform="translate(1026,289)"/>
<path d="M0 0 C1.65 0.33 3.3 0.66 5 1 C3.35 2.98 1.7 4.96 0 7 C-0.66 6.67 -1.32 6.34 -2 6 C-1.34 4.02 -0.68 2.04 0 0 Z " fill="#1B1E1D" transform="translate(624,719)"/>
<path d="M0 0 C0.99 0.33 1.98 0.66 3 1 C0.69 3.31 -1.62 5.62 -4 8 C-4.33 6.68 -4.66 5.36 -5 4 C-2.6875 1.9375 -2.6875 1.9375 0 0 Z " fill="#1B1C1C" transform="translate(801,545)"/>
<path d="M0 0 C1.65 0.99 3.3 1.98 5 3 C4.67 4.65 4.34 6.3 4 8 C2.02 6.35 0.04 4.7 -2 3 C-1.34 2.67 -0.68 2.34 0 2 C0 1.34 0 0.68 0 0 Z " fill="#181919" transform="translate(240,360)"/>
<path d="M0 0 C2.31 1.98 4.62 3.96 7 6 C6.34 6.66 5.68 7.32 5 8 C4.01 7.34 3.02 6.68 2 6 C1.34 6 0.68 6 0 6 C-1 3 -1 3 0 0 Z " fill="#1B1E1D" transform="translate(353,352)"/>
<path d="M0 0 C1.65 0.33 3.3 0.66 5 1 C3.02 3.31 1.04 5.62 -1 8 C-2 4 -2 4 -1.0625 1.75 C-0.711875 1.1725 -0.36125 0.595 0 0 Z " fill="#1C1C1C" transform="translate(618,725)"/>
<path d="M0 0 C2.31 1.98 4.62 3.96 7 6 C6.34 6.66 5.68 7.32 5 8 C3.02 6.68 1.04 5.36 -1 4 C-0.67 2.68 -0.34 1.36 0 0 Z " fill="#1B1D1C" transform="translate(593,592)"/>
<path d="M0 0 C0.66 1.32 1.32 2.64 2 4 C1.67 4.66 1.34 5.32 1 6 C-1.7696959 6.72886734 -4.12862585 7 -7 7 C-4.69 4.69 -2.38 2.38 0 0 Z " fill="#1D1C1D" transform="translate(637,586)"/>
<path d="M0 0 C2.31 1.98 4.62 3.96 7 6 C6.34 6.66 5.68 7.32 5 8 C3.0625 7.375 3.0625 7.375 1 6 C0.25 2.875 0.25 2.875 0 0 Z M-1 6 C-0.34 6 0.32 6 1 6 C0.67 6.66 0.34 7.32 0 8 C-0.33 7.34 -0.66 6.68 -1 6 Z " fill="#1E1E1E" transform="translate(585,584)"/>
<path d="M0 0 C0.66 0 1.32 0 2 0 C2 0.99 2 1.98 2 3 C2.61875 3.268125 3.2375 3.53625 3.875 3.8125 C6 5 6 5 8 8 C5 8 5 8 3.39453125 6.46875 C2.87246094 5.8190625 2.35039062 5.169375 1.8125 4.5 C1.28269531 3.8503125 0.75289063 3.200625 0.20703125 2.53125 C-0.19128906 2.0259375 -0.58960938 1.520625 -1 1 C-0.67 0.67 -0.34 0.34 0 0 Z " fill="#1D1E1D" transform="translate(386,508)"/>
<path d="M0 0 C2.31 1.98 4.62 3.96 7 6 C6.34 6.66 5.68 7.32 5 8 C3.02 6.68 1.04 5.36 -1 4 C-0.67 2.68 -0.34 1.36 0 0 Z " fill="#1B1B1B" transform="translate(505,504)"/>
<path d="M0 0 C0.66 0.99 1.32 1.98 2 3 C2.66 2.67 3.32 2.34 4 2 C4.99 2.66 5.98 3.32 7 4 C4.525 5.485 4.525 5.485 2 7 C0.68 5.35 -0.64 3.7 -2 2 C-1.34 1.34 -0.68 0.68 0 0 Z " fill="#171818" transform="translate(326,446)"/>
<path d="M0 0 C1.65 0.33 3.3 0.66 5 1 C3.02 3.31 1.04 5.62 -1 8 C-2 4 -2 4 -1.0625 1.75 C-0.711875 1.1725 -0.36125 0.595 0 0 Z " fill="#1D1C1C" transform="translate(914,429)"/>
<path d="M0 0 C0.99 0.33 1.98 0.66 3 1 C3 1.99 3 2.98 3 4 C2.01 4 1.02 4 0 4 C0 4.99 0 5.98 0 7 C-0.99 7.33 -1.98 7.66 -3 8 C-2.74438677 5.6568787 -2.40729228 3.32156597 -2 1 C-1.34 0.67 -0.68 0.34 0 0 Z " fill="#080A09" transform="translate(964,376)"/>
<path d="M0 0 C0.99 0 1.98 0 3 0 C4.44754255 1.44754255 4.55733561 3.03962913 5 5 C4.01 5.495 4.01 5.495 3 6 C3 5.34 3 4.68 3 4 C2.34 4 1.68 4 1 4 C1 4.99 1 5.98 1 7 C-0.32 6.34 -1.64 5.68 -3 5 C-2.505 4.54625 -2.01 4.0925 -1.5 3.625 C0.22609337 2.12364481 0.22609337 2.12364481 0 0 Z " fill="#101110" transform="translate(1000,340)"/>
<path d="M0 0 C2.31 0 4.62 0 7 0 C7.33 0.66 7.66 1.32 8 2 C7.67 2.99 7.34 3.98 7 5 C7.33 5.66 7.66 6.32 8 7 C3.8575633 5.61918777 2.67796901 3.40174442 0 0 Z " fill="#393B3A" transform="translate(599,724)"/>
<path d="M0 0 C0.86625 0.4640625 0.86625 0.4640625 1.75 0.9375 C3.84294184 1.92583364 5.74535275 2.5168613 8 3 C7.01 4.485 7.01 4.485 6 6 C6.33 6.66 6.66 7.32 7 8 C3.28631113 6.76210371 2.22645819 5.14775123 0 2 C0 1.34 0 0.68 0 0 Z " fill="#313332" transform="translate(584,707)"/>
<path d="M0 0 C1.2065625 0.0309375 1.2065625 0.0309375 2.4375 0.0625 C2.7675 1.3825 3.0975 2.7025 3.4375 4.0625 C2.7775 4.0625 2.1175 4.0625 1.4375 4.0625 C1.1075 4.7225 0.7775 5.3825 0.4375 6.0625 C-0.8825 4.4125 -2.2025 2.7625 -3.5625 1.0625 C-2.5625 0.0625 -2.5625 0.0625 0 0 Z " fill="#171717" transform="translate(564.5625,683.9375)"/>
<path d="M0 0 C0.66 0 1.32 0 2 0 C1.65120368 3.25543229 0.97866739 4.01873107 -1.5625 6.25 C-2.366875 6.8275 -3.17125 7.405 -4 8 C-4.33 7.34 -4.66 6.68 -5 6 C-3.625 4 -3.625 4 -2 2 C-1.34 2 -0.68 2 0 2 C0 1.34 0 0.68 0 0 Z " fill="#1C1C1C" transform="translate(761,584)"/>
<path d="M0 0 C2.31 1.65 4.62 3.3 7 5 C6.67 6.32 6.34 7.64 6 9 C3.69 6.69 1.38 4.38 -1 2 C-0.67 1.34 -0.34 0.68 0 0 Z " fill="#1F2120" transform="translate(408,530)"/>
<path d="M0 0 C2.31 1.98 4.62 3.96 7 6 C6.34 6.66 5.68 7.32 5 8 C4.01 7.01 3.02 6.02 2 5 C1.01 5.495 1.01 5.495 0 6 C-1 3 -1 3 0 0 Z " fill="#1C201F" transform="translate(465,464)"/>
<path d="M0 0 C0.66 0.33 1.32 0.66 2 1 C1.67 2.65 1.34 4.3 1 6 C-0.98 6 -2.96 6 -5 6 C-3.35 4.02 -1.7 2.04 0 0 Z " fill="#181919" transform="translate(861,362)"/>
<path d="M0 0 C5.57142857 5.14285714 5.57142857 5.14285714 6 9 C3.03 8.505 3.03 8.505 0 8 C0.66 7.01 1.32 6.02 2 5 C1.34 4.34 0.68 3.68 0 3 C0 2.01 0 1.02 0 0 Z " fill="#0A0808" transform="translate(1032,297)"/>
<path d="M0 0 C0.99 0 1.98 0 3 0 C3.33 1.98 3.66 3.96 4 6 C3.01 6.66 2.02 7.32 1 8 C0.17361624 5.10765685 0 3.11257569 0 0 Z " fill="#131313" transform="translate(704,636)"/>
<path d="M0 0 C1.65 0 3.3 0 5 0 C5 0.99 5 1.98 5 3 C2.5 5.1875 2.5 5.1875 0 7 C0.185625 6.21625 0.37125 5.4325 0.5625 4.625 C1.25962266 2.02910225 1.25962266 2.02910225 0 0 Z " fill="#171919" transform="translate(750,592)"/>
<path d="M0 0 C3.7952131 1.49097658 5.61042731 3.75700849 8 7 C5 7 5 7 2.3125 4.625 C0 2 0 2 0 0 Z " fill="#1D1F1E" transform="translate(313,313)"/>
<path d="M0 0 C2.64752004 2.57784846 4.94432065 4.91648098 7 8 C4.03 7.505 4.03 7.505 1 7 C0.67 4.69 0.34 2.38 0 0 Z " fill="#242525" transform="translate(1000,262)"/>
<path d="M0 0 C1.04449911 3.13349732 0.93423645 3.98968256 0 7 C-1.65 6.67 -3.3 6.34 -5 6 C-3.35 4.02 -1.7 2.04 0 0 Z " fill="#1B1A1A" transform="translate(703,520)"/>
<path d="M0 0 C1.32 0 2.64 0 4 0 C3.67 1.65 3.34 3.3 3 5 C0.525 4.01 0.525 4.01 -2 3 C-1.34 2.01 -0.68 1.02 0 0 Z " fill="#131313" transform="translate(756,467)"/>
<path d="M0 0 C1.98 0.495 1.98 0.495 4 1 C3.67 2.65 3.34 4.3 3 6 C1.68 5.67 0.36 5.34 -1 5 C-0.67 3.35 -0.34 1.7 0 0 Z " fill="#0A0708" transform="translate(897,441)"/>
<path d="M0 0 C2.95409701 1.37154504 5.44008376 2.98863724 8 5 C7.67 5.66 7.34 6.32 7 7 C4.13302508 5.71480435 2.02392288 4.42870746 0 2 C0 1.34 0 0.68 0 0 Z " fill="#272A29" transform="translate(425,425)"/>
<path d="M0 0 C0.99 0.33 1.98 0.66 3 1 C2.67 2.65 2.34 4.3 2 6 C1.01 6 0.02 6 -1 6 C-1.66 5.01 -2.32 4.02 -3 3 C-2.01 2.01 -1.02 1.02 0 0 Z " fill="#171415" transform="translate(813,410)"/>
<path d="M0 0 C2.31 1.98 4.62 3.96 7 6 C6.34 6.66 5.68 7.32 5 8 C2.5 6.8125 2.5 6.8125 0 5 C-0.3125 2.3125 -0.3125 2.3125 0 0 Z " fill="#202221" transform="translate(265,264)"/>
<path d="M0 0 C2.31 0.33 4.62 0.66 7 1 C6.67 1.99 6.34 2.98 6 4 C5.01 4.33 4.02 4.66 3 5 C1.5 3.625 1.5 3.625 0 2 C0 1.34 0 0.68 0 0 Z " fill="#141615" transform="translate(580,703)"/>
<path d="M0 0 C0.99 0.66 1.98 1.32 3 2 C0.03 4.475 0.03 4.475 -3 7 C-3.66 6.34 -4.32 5.68 -5 5 C-4.34 5 -3.68 5 -3 5 C-2.67 4.01 -2.34 3.02 -2 2 C-1.34 2 -0.68 2 0 2 C0 1.34 0 0.68 0 0 Z " fill="#1E1E1E" transform="translate(732,613)"/>
<path d="M0 0 C2.31 1.98 4.62 3.96 7 6 C6.67 6.66 6.34 7.32 6 8 C4 8 4 8 2.4375 6.8125 C0.67318459 4.5879284 0.37596209 2.78211944 0 0 Z " fill="#1F1E1F" transform="translate(433,432)"/>
<path d="M0 0 C3.99996286 1.33332095 4.83782337 3.4957827 7 7 C6.01 7.33 5.02 7.66 4 8 C0 2.25 0 2.25 0 0 Z " fill="#262827" transform="translate(384,383)"/>
<path d="M0 0 C1.67542976 0.28604898 3.34385343 0.61781233 5 1 C5 1.99 5 2.98 5 4 C4.01 4.33 3.02 4.66 2 5 C1.01 3.68 0.02 2.36 -1 1 C-0.67 0.67 -0.34 0.34 0 0 Z " fill="#191919" transform="translate(490,612)"/>
<path d="M0 0 C0.66 0 1.32 0 2 0 C3.38232443 1.62626404 4.71937515 3.2925002 6 5 C5.34 5.66 4.68 6.32 4 7 C2.35 5.02 0.7 3.04 -1 1 C-0.67 0.67 -0.34 0.34 0 0 Z " fill="#1D1E1E" transform="translate(482,604)"/>
<path d="M0 0 C0.66 0 1.32 0 2 0 C2.66 2.31 3.32 4.62 4 7 C3.01 7 2.02 7 1 7 C1 6.01 1 5.02 1 4 C0.01 4 -0.98 4 -2 4 C-1 1 -1 1 0 0 Z " fill="#0C0C0C" transform="translate(468,584)"/>
<path d="M0 0 C1.98 1.65 3.96 3.3 6 5 C5.34 5.66 4.68 6.32 4 7 C3.01 6.34 2.02 5.68 1 5 C0.34 4.67 -0.32 4.34 -1 4 C-0.67 2.68 -0.34 1.36 0 0 Z " fill="#1F2221" transform="translate(578,577)"/>
<path d="M0 0 C2.31 1.98 4.62 3.96 7 6 C6.34 6.66 5.68 7.32 5 8 C2.5 5.6875 2.5 5.6875 0 3 C0 2.01 0 1.02 0 0 Z " fill="#242323" transform="translate(554,553)"/>
<path d="M0 0 C2.475 0.99 2.475 0.99 5 2 C3.75 3.5625 3.75 3.5625 2 5 C-0.1875 4.6875 -0.1875 4.6875 -2 4 C-1.34 2.68 -0.68 1.36 0 0 Z " fill="#100F0F" transform="translate(546,547)"/>
<path d="M0 0 C1.32 1.32 2.64 2.64 4 4 C3.01 4.33 2.02 4.66 1 5 C0.67 5.33 0.34 5.66 0 6 C-0.99 5.67 -1.98 5.34 -3 5 C-2.01 3.35 -1.02 1.7 0 0 Z " fill="#141515" transform="translate(1019,282)"/>
<path d="M0 0 C1.65 1.65 3.3 3.3 5 5 C4.34 5.66 3.68 6.32 3 7 C1.02 5.35 -0.96 3.7 -3 2 C-2.01 1.34 -1.02 0.68 0 0 Z " fill="#282A29" transform="translate(555,676)"/>
<path d="M0 0 C2.31 1.98 4.62 3.96 7 6 C6.34 6.66 5.68 7.32 5 8 C0 2.25 0 2.25 0 0 Z " fill="#252726" transform="translate(529,528)"/>
<path d="M0 0 C2.88575819 0.39803561 3.82189513 0.79009069 5.75 3.0625 C6.1625 3.701875 6.575 4.34125 7 5 C4.625 4.75 4.625 4.75 2 4 C0.6875 1.9375 0.6875 1.9375 0 0 Z " fill="#171918" transform="translate(417,418)"/>
<path d="M0 0 C1.4606285 2.64738916 2 3.89448334 2 7 C0.35 5.35 -1.3 3.7 -3 2 C-2.01 1.34 -1.02 0.68 0 0 Z " fill="#191A1A" transform="translate(279,398)"/>
<path d="M0 0 C1.98 1.65 3.96 3.3 6 5 C5.34 5.66 4.68 6.32 4 7 C2 5.75 2 5.75 0 4 C0 2.68 0 1.36 0 0 Z " fill="#212322" transform="translate(378,377)"/>
<path d="M0 0 C0.99 0 1.98 0 3 0 C1.63016497 3.16115776 1.0109362 3.9927092 -2 6 C-2 4.68 -2 3.36 -2 2 C-1.34 2 -0.68 2 0 2 C0 1.34 0 0.68 0 0 Z " fill="#1D1D1D" transform="translate(1020,325)"/>
<path d="M0 0 C2.31 1.98 4.62 3.96 7 6 C6.34 6.66 5.68 7.32 5 8 C0 2.25 0 2.25 0 0 Z " fill="#262525" transform="translate(289,288)"/>
<path d="M0 0 C0.66 0.33 1.32 0.66 2 1 C2 1.99 2 2.98 2 4 C1.01 4.33 0.02 4.66 -1 5 C-1.99 4.01 -2.98 3.02 -4 2 C-2.125 0.9375 -2.125 0.9375 0 0 Z " fill="#111111" transform="translate(966,259)"/>
<path d="M0 0 C1.98 1.65 3.96 3.3 6 5 C5.34 5.66 4.68 6.32 4 7 C2.35 5.02 0.7 3.04 -1 1 C-0.67 0.67 -0.34 0.34 0 0 Z " fill="#202221" transform="translate(538,537)"/>
<path d="M0 0 C0.66 0 1.32 0 2 0 C2.33 1.32 2.66 2.64 3 4 C0 6 0 6 -4 6 C-2.93428349 3.86856698 -1.67042471 2.67042471 0 1 C0 0.67 0 0.34 0 0 Z " fill="#080808" transform="translate(820,520)"/>
<path d="M0 0 C0.99 0 1.98 0 3 0 C1.70700306 2.88437779 0.34058637 4.87219421 -2 7 C-1.125 1.125 -1.125 1.125 0 0 Z " fill="#292929" transform="translate(873,472)"/>
<path d="M0 0 C1.32 1.65 2.64 3.3 4 5 C3.67 5.66 3.34 6.32 3 7 C2.34 7 1.68 7 1 7 C-2 3.53846154 -2 3.53846154 -2 1 C-1.34 0.67 -0.68 0.34 0 0 Z " fill="#282928" transform="translate(348,468)"/>
<path d="M0 0 C2 1 2 1 3 3 C2.34 3 1.68 3 1 3 C1 3.66 1 4.32 1 5 C-0.32 5 -1.64 5 -3 5 C-1.125 1.125 -1.125 1.125 0 0 Z " fill="#080D0B" transform="translate(884,458)"/>
<path d="M0 0 C1.65 1.65 3.3 3.3 5 5 C3.35 5.33 1.7 5.66 0 6 C-1 3 -1 3 0 0 Z " fill="#0D0E0E" transform="translate(202,321)"/>
<path d="M0 0 C2.31 0.66 4.62 1.32 7 2 C6.01 2.33 5.02 2.66 4 3 C3.67 3.66 3.34 4.32 3 5 C1.5 3.625 1.5 3.625 0 2 C0 1.34 0 0.68 0 0 Z " fill="#151716" transform="translate(188,311)"/>
<path d="" fill="#CAD3D0" transform="translate(0,0)"/>
<path d="" fill="#D3D3D3" transform="translate(0,0)"/>
<path d="" fill="#D3D3D3" transform="translate(0,0)"/>
<path d="" fill="#CFD3D2" transform="translate(0,0)"/>
<path d="" fill="#D1D5D4" transform="translate(0,0)"/>
<path d="" fill="#D2D2D2" transform="translate(0,0)"/>
<path d="" fill="#D4D4D4" transform="translate(0,0)"/>
<path d="" fill="#CCD5D2" transform="translate(0,0)"/>
<path d="" fill="#D0D4D3" transform="translate(0,0)"/>
<path d="" fill="#D4D4D4" transform="translate(0,0)"/>
<path d="" fill="#D2D2D2" transform="translate(0,0)"/>
<path d="" fill="#CFD5D3" transform="translate(0,0)"/>
<path d="" fill="#C9D2CF" transform="translate(0,0)"/>
<path d="" fill="#CFD3D2" transform="translate(0,0)"/>
<path d="" fill="#D1D5D4" transform="translate(0,0)"/>
<path d="" fill="#D5D5D5" transform="translate(0,0)"/>
<path d="" fill="#D1D5D4" transform="translate(0,0)"/>
<path d="" fill="#D4D4D4" transform="translate(0,0)"/>
<path d="" fill="#D0D4D3" transform="translate(0,0)"/>
<path d="" fill="#D2D2D2" transform="translate(0,0)"/>
<path d="" fill="#CDD1D0" transform="translate(0,0)"/>
<path d="" fill="#D5D5D5" transform="translate(0,0)"/>
<path d="" fill="#D1D1D1" transform="translate(0,0)"/>
<path d="" fill="#D4D4D4" transform="translate(0,0)"/>
<path d="" fill="#CED4D2" transform="translate(0,0)"/>
</svg>
