<svg width="15" height="16" viewBox="0 0 15 16" fill="none" xmlns="http://www.w3.org/2000/svg">
<path d="M6 3.06098H9C9 2.25275 8.32845 1.59756 7.5 1.59756C6.67155 1.59756 6 2.25275 6 3.06098ZM4.875 3.06098C4.875 1.64659 6.05025 0.5 7.5 0.5C8.94975 0.5 10.125 1.64659 10.125 3.06098H14.4375C14.7482 3.06098 15 3.30668 15 3.60976C15 3.91284 14.7482 4.15854 14.4375 4.15854H13.4482L12.5692 13.0204C12.4297 14.4269 11.2181 15.5 9.76973 15.5H5.23027C3.78191 15.5 2.57036 14.4269 2.43085 13.0204L1.55181 4.15854H0.5625C0.251843 4.15854 0 3.91284 0 3.60976C0 3.30668 0.251843 3.06098 0.5625 3.06098H4.875ZM6.375 6.53659C6.375 6.23351 6.12315 5.98781 5.8125 5.98781C5.50184 5.98781 5.25 6.23351 5.25 6.53659V12.0244C5.25 12.3275 5.50184 12.5732 5.8125 12.5732C6.12315 12.5732 6.375 12.3275 6.375 12.0244V6.53659ZM9.1875 5.98781C9.49815 5.98781 9.75 6.23351 9.75 6.53659V12.0244C9.75 12.3275 9.49815 12.5732 9.1875 12.5732C8.87685 12.5732 8.625 12.3275 8.625 12.0244V6.53659C8.625 6.23351 8.87685 5.98781 9.1875 5.98781ZM3.55062 12.9147C3.63433 13.7585 4.36125 14.4024 5.23027 14.4024H9.76973C10.6388 14.4024 11.3657 13.7585 11.4494 12.9147L12.3179 4.15854H2.68206L3.55062 12.9147Z" fill="#212121"/>
</svg>
