<svg width="22" height="22" viewBox="0 0 22 22" fill="none" xmlns="http://www.w3.org/2000/svg">
<path d="M6.12491 1.79163C5.22738 1.79163 4.49984 2.51919 4.49984 3.41663C4.49984 4.31406 5.22738 5.04163 6.12491 5.04163C7.02244 5.04163 7.74999 4.31406 7.74999 3.41663C7.74999 2.51919 7.02244 1.79163 6.12491 1.79163ZM2.87484 3.41663C2.87484 1.62167 4.32997 0.166626 6.12491 0.166626C7.91986 0.166626 9.37494 1.62167 9.37494 3.41663C9.37494 5.21158 7.91986 6.66663 6.12491 6.66663C4.32997 6.66663 2.87484 5.21158 2.87484 3.41663ZM2.08166 7.74996C1.02395 7.74996 0.166504 8.60741 0.166504 9.66508V10.0544C0.166493 10.2801 0.166439 11.5806 0.925769 12.8446C1.51815 13.8305 2.52444 14.7159 4.14805 15.1127C4.37103 14.5179 4.77757 14.0128 5.29871 13.6663C3.56118 13.4804 2.74012 12.709 2.31871 12.0077C1.79432 11.1348 1.7915 10.2058 1.7915 10.052V9.66508C1.7915 9.50485 1.92142 9.37496 2.08166 9.37496H6.70003C6.77311 8.78891 6.96322 8.23919 7.24624 7.74996H2.08166ZM14.7536 7.74996C15.0367 8.23919 15.2267 8.78891 15.2998 9.37496H19.9181C20.0783 9.37496 20.2082 9.50485 20.2082 9.66508V10.052C20.2082 10.2058 20.2054 11.1348 19.681 12.0077C19.2596 12.709 18.4384 13.4804 16.701 13.6663C17.2221 14.0128 17.6286 14.5179 17.8516 15.1127C19.4752 14.7159 20.4815 13.8305 21.0739 12.8446C21.8333 11.5806 21.8332 10.2801 21.8332 10.0544V9.66508C21.8332 8.60741 20.9757 7.74996 19.9181 7.74996H14.7536ZM14.2498 3.41663C14.2498 2.51919 14.9774 1.79163 15.8749 1.79163C16.7725 1.79163 17.4999 2.51919 17.4999 3.41663C17.4999 4.31406 16.7725 5.04163 15.8749 5.04163C14.9774 5.04163 14.2498 4.31406 14.2498 3.41663ZM15.8749 0.166626C14.08 0.166626 12.6248 1.62167 12.6248 3.41663C12.6248 5.21158 14.08 6.66663 15.8749 6.66663C17.6698 6.66663 19.1249 5.21158 19.1249 3.41663C19.1249 1.62167 17.6698 0.166626 15.8749 0.166626ZM10.9999 8.29163C10.1024 8.29163 9.37484 9.01919 9.37484 9.91663C9.37484 10.8141 10.1024 11.5416 10.9999 11.5416C11.8975 11.5416 12.6249 10.8141 12.6249 9.91663C12.6249 9.01919 11.8975 8.29163 10.9999 8.29163ZM7.74984 9.91663C7.74984 8.12167 9.20497 6.66663 10.9999 6.66663C12.7948 6.66663 14.2499 8.12167 14.2499 9.91663C14.2499 11.7116 12.7948 13.1666 10.9999 13.1666C9.20497 13.1666 7.74984 11.7116 7.74984 9.91663ZM5.0415 16.1651C5.0415 15.1074 5.89895 14.25 6.95666 14.25H15.0431C16.1007 14.25 16.9582 15.1074 16.9582 16.1651V16.5544C16.9582 16.7801 16.9583 18.0806 16.1989 19.3445C15.3958 20.6814 13.8317 21.8333 10.9998 21.8333C8.16797 21.8333 6.60393 20.6814 5.80076 19.3445C5.04144 18.0806 5.04149 16.7801 5.0415 16.5544V16.1651ZM6.95666 15.875C6.79642 15.875 6.6665 16.0048 6.6665 16.1651V16.552C6.6665 16.7058 6.66932 17.6348 7.19371 18.5077C7.67699 19.312 8.68587 20.2083 10.9998 20.2083C13.3138 20.2083 14.3226 19.312 14.806 18.5077C15.3304 17.6348 15.3332 16.7058 15.3332 16.552V16.1651C15.3332 16.0048 15.2033 15.875 15.0431 15.875H6.95666Z" fill="#212121"/>
</svg>
