<svg width="430" height="27" viewBox="0 0 430 27" fill="none" xmlns="http://www.w3.org/2000/svg">
<rect width="430" height="27" fill="white"/>
<circle cx="338" cy="13" r="9" fill="white" fill-opacity="0.5" stroke="#707070" stroke-width="2"/>
<path d="M287 13C287 17.9251 282.793 22 277.5 22C272.207 22 268 17.9251 268 13C268 8.07485 272.207 4 277.5 4C282.793 4 287 8.07485 287 13Z" fill="white" fill-opacity="0.5" stroke="#707070" stroke-width="2"/>
<path d="M224 13C224 17.9251 219.793 22 214.5 22C209.207 22 205 17.9251 205 13C205 8.07485 209.207 4 214.5 4C219.793 4 224 8.07485 224 13Z" fill="white" fill-opacity="0.5" stroke="#707070" stroke-width="2"/>
<path d="M162 13C162 17.9251 157.793 22 152.5 22C147.207 22 143 17.9251 143 13C143 8.07485 147.207 4 152.5 4C157.793 4 162 8.07485 162 13Z" fill="white" fill-opacity="0.5" stroke="#707070" stroke-width="2"/>
<circle cx="92" cy="13" r="9" fill="white" fill-opacity="0.5" stroke="#707070" stroke-width="2"/>
</svg>
