<svg width="29" height="31" viewBox="0 0 29 31" fill="none" xmlns="http://www.w3.org/2000/svg">
<path d="M16.5648 19.9246L18.8546 17.71H3.43288C1.53695 17.71 0 19.1965 0 21.0303V21.8831C0 23.2012 0.486202 24.4761 1.37121 25.4784C3.50183 27.8916 6.62608 29.2157 10.6793 29.4754C10.673 29.2055 10.7039 28.9278 10.7765 28.6467L11.1292 27.2827C7.50617 27.106 4.85706 26.0163 3.11245 24.0403C2.58146 23.4389 2.28973 22.674 2.28973 21.8831V21.0303C2.28973 20.4197 2.80154 19.9246 3.43288 19.9246H16.5648ZM12.2066 0C16.4218 0 19.839 3.30506 19.839 7.38205C19.839 11.459 16.4218 14.7641 12.2066 14.7641C7.99122 14.7641 4.57405 11.459 4.57405 7.38205C4.57405 3.30506 7.99122 0 12.2066 0ZM12.2066 2.21461C9.25585 2.21461 6.86378 4.52816 6.86378 7.38205C6.86378 10.2359 9.25585 12.5495 12.2066 12.5495C15.1573 12.5495 17.5493 10.2359 17.5493 7.38205C17.5493 4.52816 15.1573 2.21461 12.2066 2.21461ZM23.0439 15.7453L14.0338 24.4597C13.5085 24.9677 13.1359 25.6044 12.9556 26.3015L12.2569 29.0044C11.9532 30.1798 13.0541 31.2445 14.2693 30.9506L17.0638 30.2748C17.7845 30.1006 18.4427 29.7402 18.9681 29.2321L27.9781 20.5177C29.3406 19.1999 29.3406 17.0632 27.9781 15.7453C26.6155 14.4274 24.4064 14.4274 23.0439 15.7453Z" fill="#212121"/>
</svg>
