<svg width="31" height="31" viewBox="0 0 31 31" fill="none" xmlns="http://www.w3.org/2000/svg">
<path d="M10.08 14.9288C10.9381 14.9288 11.6336 15.7771 11.6336 16.8236C11.6336 17.8701 10.9381 18.7183 10.08 18.7183C9.22201 18.7183 8.52644 17.8701 8.52644 16.8236C8.52644 15.7771 9.22201 14.9288 10.08 14.9288ZM15.5026 1.41836V13.0381L15.5034 13.9929L27.0397 13.991L24.3695 10.732C23.9568 10.2285 23.9193 9.44068 24.2571 8.88562L24.3698 8.72661C24.7827 8.22327 25.4285 8.17763 25.8836 8.58963L26.014 8.72695L30.6595 14.3945C31.0719 14.8976 31.1097 15.6845 30.7727 16.2396L30.6603 16.3986L26.0148 22.0771C25.5613 22.6316 24.8251 22.6325 24.3706 22.0795C23.9573 21.5766 23.919 20.7889 24.2562 20.2333L24.3687 20.0741L27.0242 16.827L15.5034 16.8289L15.5026 29.5816C15.5026 30.4634 14.8497 31.1313 14.1378 30.978L0.960465 28.1395C0.404944 28.0198 0 27.4311 0 26.7431V4.05742C0 3.36296 0.412385 2.77068 0.974293 2.65815L14.1516 0.0190817C14.8594 -0.122682 15.5026 0.543481 15.5026 1.41836ZM13.1772 3.0882L2.32539 5.26156V25.5536L13.1772 27.8913V3.0882ZM17.0529 28.166L18.2391 28.1664L18.397 28.1533C18.9651 28.0592 19.4028 27.4647 19.4018 26.7459L19.3907 18.7101H17.0529V28.166ZM17.056 12.0928L17.0529 9.68284V2.63939L18.2083 2.63941C18.7962 2.63941 19.2823 3.17168 19.3601 3.86289L19.371 4.05508L19.3814 12.0928H17.056Z" fill="white"/>
</svg>
