<svg width="19" height="20" viewBox="0 0 21 25" fill="none" xmlns="http://www.w3.org/2000/svg">
<path d="M17.4534 15.0441C18.9542 15.0441 20.1708 16.2607 20.1708 17.7616V18.4568C20.1708 19.5375 19.7846 20.5824 19.082 21.4034C17.1856 23.6188 14.3011 24.7121 10.5005 24.7121C6.6992 24.7121 3.81611 23.6185 1.9235 21.402C1.22294 20.5817 0.838074 19.5383 0.838074 18.4595V17.7616C0.838074 16.2607 2.05468 15.0441 3.55546 15.0441H17.4534ZM17.4534 16.8566H3.55546C3.0557 16.8566 2.65057 17.2618 2.65057 17.7616V18.4595C2.65057 19.1068 2.8815 19.7328 3.30182 20.225C4.81623 21.9985 7.19167 22.8996 10.5005 22.8996C13.8093 22.8996 16.1868 21.9985 17.7049 20.2248C18.1267 19.7321 18.3583 19.1051 18.3583 18.4568V17.7616C18.3583 17.2618 17.9531 16.8566 17.4534 16.8566ZM10.5005 0.549805C13.8372 0.549805 16.5422 3.25476 16.5422 6.59147C16.5422 9.9282 13.8372 12.6332 10.5005 12.6332C7.16373 12.6332 4.45878 9.9282 4.45878 6.59147C4.45878 3.25476 7.16373 0.549805 10.5005 0.549805ZM10.5005 2.3623C8.16479 2.3623 6.27128 4.25577 6.27128 6.59147C6.27128 8.92718 8.16479 10.8207 10.5005 10.8207C12.8362 10.8207 14.7297 8.92718 14.7297 6.59147C14.7297 4.25577 12.8362 2.3623 10.5005 2.3623Z" fill="#212121"/>
</svg>