<svg width="20" height="21" viewBox="0 0 20 21" fill="none" xmlns="http://www.w3.org/2000/svg">
<path d="M8.38833 0.585656C9.31933 -0.195221 10.6807 -0.195221 11.6117 0.585667L19.1117 6.87629C19.6749 7.34877 20 8.04433 20 8.77722V19.066C20 20.1341 19.1294 21 18.0556 21H14.1667C13.0928 21 12.2222 20.1341 12.2222 19.066V13.5324C12.2222 13.3799 12.0979 13.2561 11.9444 13.2561H8.05556C7.90211 13.2561 7.77777 13.3799 7.77777 13.5324V19.066C7.77777 20.1341 6.90722 21 5.83333 21H1.94444C0.870556 21 0 20.1341 0 19.066V8.77722C0 8.04433 0.325056 7.34877 0.888356 6.87629L8.38833 0.585656ZM10.5372 1.85294C10.2269 1.59265 9.77311 1.59265 9.46278 1.85294L1.96279 8.14358C1.77502 8.30106 1.66667 8.53292 1.66667 8.77722V19.066C1.66667 19.2186 1.79103 19.3423 1.94444 19.3423H5.83333C5.98674 19.3423 6.1111 19.2186 6.1111 19.066V13.5324C6.1111 12.4643 6.98167 11.5984 8.05556 11.5984H11.9444C13.0183 11.5984 13.8889 12.4643 13.8889 13.5324V19.066C13.8889 19.2186 14.0132 19.3423 14.1667 19.3423H18.0556C18.209 19.3423 18.3333 19.2186 18.3333 19.066V8.77722C18.3333 8.53292 18.225 8.30106 18.0372 8.14358L10.5372 1.85294Z" fill="#212121"/>
</svg>
