<svg width="22" height="15" viewBox="0 0 22 15" fill="none" xmlns="http://www.w3.org/2000/svg">
<path d="M0 0.681818C0 0.305264 0.307808 0 0.6875 0H21.3125C21.6921 0 22 0.305264 22 0.681818C22 1.05837 21.6921 1.36364 21.3125 1.36364H0.6875C0.307808 1.36364 0 1.05837 0 0.681818ZM0 7.5C0 7.12345 0.307808 6.81818 0.6875 6.81818H21.3125C21.6921 6.81818 22 7.12345 22 7.5C22 7.87655 21.6921 8.18182 21.3125 8.18182H0.6875C0.307808 8.18182 0 7.87655 0 7.5ZM0.6875 13.6364C0.307808 13.6364 0 13.9417 0 14.3182C0 14.6947 0.307808 15 0.6875 15H21.3125C21.6921 15 22 14.6947 22 14.3182C22 13.9417 21.6921 13.6364 21.3125 13.6364H0.6875Z" fill="#212121"/>
</svg>
